<svg width="163" height="31" viewBox="0 0 163 31" fill="none" xmlns="http://www.w3.org/2000/svg">
<mask id="mask0_38_200" style="mask-type:luminance" maskUnits="userSpaceOnUse" x="0" y="0" width="32" height="31">
<path d="M31.0476 0H0V31H31.0476V0Z" fill="white"/>
</mask>
<g mask="url(#mask0_38_200)">
<path d="M29.5132 17.8953L29.7548 15.2457C29.7548 11.7277 29.0761 8.91347 26.5904 7.06316C25.2301 4.34629 22.1985 0.969234 15.5208 0.96875C8.84664 0.96875 5.81658 4.3463 4.45728 7.06365C1.97153 8.91347 1.29285 11.7282 1.29285 15.2462L1.53445 17.8957C1.19922 18.2266 0.970245 18.74 0.970245 19.4941C0.970245 21.5168 2.15491 21.7886 2.641 21.8148C2.88258 25.8433 6.93769 30.0312 15.5243 30.0312C24.6411 30.0312 28.1616 25.2558 28.4057 21.8152C28.7035 21.8017 29.1018 21.7116 29.4429 21.3905C29.8645 20.9942 30.0774 20.3559 30.0774 19.4941C30.0774 18.74 29.8484 18.2266 29.5132 17.8953ZM28.9456 20.8664C28.6196 21.1725 28.1413 21.0809 28.1413 21.0809L27.6955 20.9743V21.4312C27.6955 24.598 24.4539 29.3105 15.5243 29.3105C6.59472 29.3105 3.35364 24.5985 3.35364 21.4316L3.35024 20.9836L2.91072 21.0805C2.85028 21.0919 2.78886 21.0973 2.72735 21.0965C1.87306 21.0965 1.69355 20.225 1.69355 19.4941C1.69355 18.3607 2.29947 18.1229 2.8074 18.1229C2.85833 18.1229 2.89229 18.1262 2.89811 18.1267L2.99028 18.1384L3.0776 18.1049C4.18027 17.6728 4.9167 17.0137 5.26695 16.1461C5.94418 14.4649 5.00206 12.432 4.43885 11.2167C4.29573 10.9076 4.14728 10.5889 4.10847 10.4378C4.21666 9.63422 5.54104 1.68901 15.5243 1.68901C25.5061 1.68999 26.832 9.63276 26.9396 10.4378C26.9003 10.5894 26.7528 10.9081 26.6092 11.2167C26.0461 12.4315 25.103 14.4649 25.7807 16.1461C26.1305 17.0137 26.8668 17.6728 27.97 18.1049L28.0574 18.1375L28.1475 18.1273C28.1783 18.1241 28.2094 18.1227 28.2403 18.1229C28.7482 18.1229 29.3541 18.3607 29.3541 19.4941C29.3541 20.1408 29.2125 20.6159 28.9456 20.8664Z" fill="#0D122A" fill-opacity="0.8"/>
<path d="M15.5243 22.4861C13.1725 22.4861 11.2664 23.5649 11.2664 24.7806C11.2664 24.9439 11.3023 25.3513 11.3687 25.3513H12.8052L13.089 24.6726L13.3432 25.3513H19.6618C19.7385 25.3513 19.7812 24.9259 19.7812 24.7491C19.7812 23.5339 17.8757 22.4861 15.5243 22.4861ZM15.5563 4.51876C16.6863 4.47574 17.8179 4.4945 18.9458 4.57494C20.0776 4.65729 21.2061 4.81084 22.3626 4.99781C21.3336 4.43884 20.2023 4.06878 19.0458 3.84451C17.8878 3.6125 16.7012 3.54322 15.5233 3.57519C14.3498 3.6223 13.183 3.77567 12.0372 4.03341C10.8924 4.27803 9.79551 4.64954 8.68556 4.99781C9.86391 5.03413 11.0161 4.85976 12.1542 4.75853C13.2947 4.65197 14.4255 4.54782 15.5563 4.51876ZM15.5505 6.50906C16.9283 6.46596 18.3075 6.48438 19.6837 6.56428C21.0634 6.64662 22.4397 6.79919 23.8377 6.98859C22.545 6.42041 21.1648 6.05375 19.7647 5.83093C18.3636 5.60085 16.9399 5.53304 15.5233 5.56501C14.1096 5.61156 12.7013 5.76425 11.3105 6.02178C9.92115 6.26493 8.57107 6.63838 7.20983 6.9881C8.62735 7.02491 10.023 6.852 11.4076 6.74979C12.7935 6.64275 14.1718 6.5386 15.5505 6.50906ZM21.0838 13.6264C20.292 13.6258 19.5173 13.8564 18.8551 14.2897C18.193 14.7232 17.6722 15.3405 17.3571 16.0658C16.0613 15.9965 14.8427 16.0575 13.7352 16.1772C13.4347 15.4241 12.9148 14.7782 12.2427 14.3234C11.5706 13.8686 10.7772 13.6257 9.9653 13.6259C7.72503 13.6259 5.9068 15.4346 5.9068 17.6681C5.9068 19.9001 7.72503 21.7107 9.9653 21.7107C12.2061 21.7107 14.0247 19.9006 14.0247 17.6681C14.0247 17.6133 14.018 17.5587 14.0161 17.5034C14.9523 17.4079 15.9672 17.3581 17.0379 17.4002C17.0305 17.4889 17.0233 17.577 17.0233 17.6681C17.0233 19.9001 18.8415 21.7107 21.0833 21.7107C23.3231 21.7107 25.1408 19.9006 25.1408 17.6681C25.1413 15.4352 23.3235 13.6264 21.0838 13.6264ZM9.9653 20.3626C8.47114 20.3626 7.25979 19.1571 7.25979 17.6681C7.25979 16.1792 8.47114 14.973 9.9653 14.973C11.4595 14.973 12.6713 16.1792 12.6713 17.6681C12.6713 19.1571 11.4595 20.3626 9.9653 20.3626ZM21.0828 20.3626C19.5886 20.3626 18.3768 19.1571 18.3768 17.6681C18.3768 16.1792 19.5886 14.973 21.0828 14.973C22.5769 14.973 23.7888 16.1792 23.7888 17.6681C23.7888 19.1571 22.5769 20.3626 21.0828 20.3626Z" fill="#0D122A" fill-opacity="0.8"/>
</g>
<path d="M41.9848 22.1712C41.2645 22.1712 40.6226 22.0464 40.0591 21.7969C39.4955 21.5424 39.0496 21.1682 38.7213 20.674C38.3979 20.1749 38.2362 19.5536 38.2362 18.8099C38.2362 18.1837 38.3513 17.6577 38.5817 17.232C38.812 16.8064 39.1256 16.4638 39.5225 16.2046C39.9195 15.9452 40.3702 15.7495 40.875 15.6174C41.3845 15.4853 41.9187 15.3924 42.4773 15.3385C43.1339 15.2701 43.6632 15.2064 44.065 15.1478C44.4668 15.0841 44.7584 14.9912 44.9396 14.8689C45.121 14.7466 45.2117 14.5655 45.2117 14.3257V14.2817C45.2117 13.817 45.0646 13.4574 44.7707 13.2029C44.4815 12.9484 44.0699 12.8213 43.5357 12.8213C42.9722 12.8213 42.5239 12.946 42.1906 13.1955C41.8575 13.4402 41.6369 13.7484 41.5292 14.1202L38.6331 13.8854C38.7802 13.2004 39.0693 12.6084 39.5005 12.1094C39.9316 11.6054 40.4878 11.2189 41.169 10.9498C41.855 10.6758 42.6488 10.5388 43.5505 10.5388C44.1777 10.5388 44.7779 10.6122 45.3513 10.759C45.9295 10.9058 46.4415 11.1333 46.8875 11.4415C47.3383 11.7498 47.6935 12.1461 47.9533 12.6304C48.2129 13.1099 48.3428 13.6848 48.3428 14.3551V21.9583H45.3734V20.3952H45.2851C45.1038 20.7474 44.8612 21.058 44.5575 21.3272C44.2536 21.5914 43.8885 21.7993 43.4623 21.951C43.0359 22.0978 42.5435 22.1712 41.9848 22.1712ZM42.8815 20.0135C43.3422 20.0135 43.7489 19.9229 44.1017 19.742C44.4545 19.5561 44.7315 19.3065 44.9324 18.9933C45.1333 18.6802 45.2337 18.3255 45.2337 17.9292V16.7329C45.1357 16.7966 45.0009 16.8552 44.8294 16.9091C44.6628 16.958 44.4742 17.0045 44.2634 17.0486C44.0527 17.0877 43.8421 17.1244 43.6313 17.1586C43.4206 17.1879 43.2295 17.2149 43.058 17.2394C42.6905 17.2932 42.3695 17.3787 42.0951 17.4963C41.8207 17.6137 41.6076 17.7727 41.4557 17.9733C41.3037 18.169 41.2277 18.4136 41.2277 18.7072C41.2277 19.1328 41.3821 19.4582 41.6909 19.6832C42.0044 19.9034 42.4013 20.0135 42.8815 20.0135ZM58.0122 17.1586V10.6856H61.1434V21.9583H58.1371V19.9108H58.0195C57.7647 20.5712 57.3408 21.1021 56.7479 21.5033C56.1598 21.9045 55.442 22.1051 54.5943 22.1051C53.8397 22.1051 53.1756 21.9339 52.6023 21.5914C52.0291 21.2489 51.5807 20.7621 51.2573 20.1309C50.9387 19.4998 50.777 18.7439 50.7722 17.8631V10.6856H53.9033V17.3054C53.9082 17.9708 54.0872 18.4968 54.4399 18.8833C54.7927 19.2699 55.2655 19.4631 55.8585 19.4631C56.2358 19.4631 56.5887 19.3775 56.917 19.2062C57.2452 19.0301 57.5099 18.7708 57.7108 18.4282C57.9166 18.0858 58.017 17.6625 58.0122 17.1586ZM68.7491 22.1786C67.5926 22.1786 66.5979 21.9339 65.7648 21.4446C64.9367 20.9504 64.2997 20.2655 63.8538 19.3897C63.4128 18.5138 63.1923 17.506 63.1923 16.3661C63.1923 15.2113 63.4153 14.1985 63.8612 13.3277C64.3119 12.4519 64.9515 11.7693 65.7796 11.2801C66.6077 10.7859 67.5926 10.5388 68.7344 10.5388C69.7194 10.5388 70.5817 10.7174 71.3217 11.0746C72.0616 11.4317 72.6472 11.9332 73.0785 12.5791C73.5096 13.2249 73.7473 13.9833 73.7914 14.8542H70.8366C70.7533 14.2915 70.5328 13.8389 70.175 13.4965C69.8222 13.149 69.3592 12.9754 68.7859 12.9754C68.3008 12.9754 67.8768 13.1074 67.5142 13.3717C67.1565 13.631 66.8772 14.0102 66.6763 14.5093C66.4754 15.0083 66.3749 15.6125 66.3749 16.322C66.3749 17.0412 66.4729 17.6528 66.6689 18.1567C66.8698 18.6607 67.1516 19.0447 67.5142 19.309C67.8768 19.5731 68.3008 19.7053 68.7859 19.7053C69.1436 19.7053 69.4645 19.6319 69.7487 19.485C70.0379 19.3383 70.2755 19.1254 70.4617 18.8466C70.6529 18.5628 70.7777 18.2228 70.8366 17.8264H73.7914C73.7424 18.6876 73.5072 19.4459 73.0857 20.1016C72.6693 20.7523 72.0935 21.2611 71.3584 21.6281C70.6234 21.995 69.7537 22.1786 68.7491 22.1786ZM81.8014 10.6856V13.0341H75.0024V10.6856H81.8014ZM76.546 7.98485H79.6771V18.4943C79.6771 18.783 79.7212 19.008 79.8095 19.1695C79.8977 19.326 80.0202 19.4361 80.177 19.4998C80.3387 19.5633 80.5248 19.5952 80.7356 19.5952C80.8825 19.5952 81.0296 19.583 81.1766 19.5584C81.3235 19.5291 81.4363 19.5071 81.5147 19.4924L82.0071 21.8188C81.8503 21.8678 81.6299 21.9241 81.3457 21.9877C81.0615 22.0562 80.7159 22.0978 80.3092 22.1124C79.5546 22.1417 78.893 22.0415 78.3247 21.8116C77.7611 21.5816 77.3225 21.2244 77.009 20.74C76.6954 20.2557 76.541 19.6441 76.546 18.9053V7.98485ZM83.8411 21.9583V10.6856H86.9723V21.9583H83.8411ZM85.4141 9.23248C84.9485 9.23248 84.5491 9.07836 84.2159 8.77012C83.8876 8.45699 83.7235 8.08271 83.7235 7.64725C83.7235 7.21669 83.8876 6.8473 84.2159 6.53906C84.5491 6.22593 84.9485 6.06936 85.4141 6.06936C85.8795 6.06936 86.2764 6.22593 86.6047 6.53906C86.938 6.8473 87.1046 7.21669 87.1046 7.64725C87.1046 8.08271 86.938 8.45699 86.6047 8.77012C86.2764 9.07836 85.8795 9.23248 85.4141 9.23248ZM94.5817 22.1786C93.4399 22.1786 92.4526 21.9364 91.6195 21.452C90.7914 20.9627 90.1519 20.2827 89.7011 19.4117C89.2503 18.5359 89.0249 17.5207 89.0249 16.3661C89.0249 15.2015 89.2503 14.1839 89.7011 13.3129C90.1519 12.4372 90.7914 11.7571 91.6195 11.2727C92.4526 10.7835 93.4399 10.5388 94.5817 10.5388C95.7234 10.5388 96.7084 10.7835 97.5365 11.2727C98.3695 11.7571 99.0115 12.4372 99.4622 13.3129C99.9131 14.1839 100.139 15.2015 100.139 16.3661C100.139 17.5207 99.9131 18.5359 99.4622 19.4117C99.0115 20.2827 98.3695 20.9627 97.5365 21.452C96.7084 21.9364 95.7234 22.1786 94.5817 22.1786ZM94.5964 19.7567C95.1158 19.7567 95.5494 19.6098 95.8974 19.3162C96.2453 19.0179 96.5075 18.6118 96.6838 18.0981C96.8652 17.5842 96.9558 16.9996 96.9558 16.344C96.9558 15.6883 96.8652 15.1037 96.6838 14.59C96.5075 14.0762 96.2453 13.6701 95.8974 13.3717C95.5494 13.0732 95.1158 12.924 94.5964 12.924C94.0721 12.924 93.6311 13.0732 93.2734 13.3717C92.9205 13.6701 92.6535 14.0762 92.4721 14.59C92.2958 15.1037 92.2075 15.6883 92.2075 16.344C92.2075 16.9996 92.2958 17.5842 92.4721 18.0981C92.6535 18.6118 92.9205 19.0179 93.2734 19.3162C93.6311 19.6098 94.0721 19.7567 94.5964 19.7567ZM105.306 15.4412V21.9583H102.174V10.6856H105.159V12.6745H105.291C105.541 12.0189 105.96 11.5002 106.548 11.1186C107.136 10.7321 107.849 10.5388 108.687 10.5388C109.471 10.5388 110.154 10.7101 110.738 11.0526C111.321 11.395 111.774 11.8843 112.097 12.5204C112.421 13.1515 112.583 13.905 112.583 14.7808V21.9583H109.451V15.3385C109.456 14.6487 109.28 14.1104 108.922 13.724C108.564 13.3326 108.072 13.1369 107.445 13.1369C107.023 13.1369 106.651 13.2273 106.327 13.4084C106.009 13.5894 105.759 13.8536 105.578 14.201C105.401 14.5435 105.311 14.9569 105.306 15.4412ZM115.388 26.1856V10.6856H117.064V12.4763H117.27C117.398 12.2806 117.574 12.0311 117.799 11.7277C118.03 11.4195 118.358 11.1455 118.784 10.9058C119.216 10.6611 119.799 10.5388 120.534 10.5388C121.484 10.5388 122.322 10.7761 123.048 11.2507C123.773 11.7253 124.339 12.398 124.745 13.2689C125.152 14.1399 125.356 15.1673 125.356 16.3513C125.356 17.5451 125.152 18.58 124.745 19.4557C124.339 20.3266 123.775 21.0019 123.055 21.4813C122.334 21.9559 121.504 22.1932 120.563 22.1932C119.838 22.1932 119.257 22.0733 118.821 21.8336C118.385 21.5889 118.049 21.3125 117.814 21.0043C117.579 20.6911 117.398 20.4318 117.27 20.2263H117.123V26.1856H115.388ZM117.094 16.322C117.094 17.1734 117.219 17.9243 117.469 18.5751C117.719 19.2209 118.084 19.7272 118.564 20.0942C119.044 20.4563 119.632 20.6373 120.328 20.6373C121.053 20.6373 121.658 20.4464 122.143 20.0649C122.633 19.6783 123.001 19.1597 123.246 18.5089C123.496 17.8534 123.621 17.1244 123.621 16.322C123.621 15.5293 123.498 14.815 123.253 14.179C123.013 13.5381 122.648 13.0316 122.158 12.6598C121.673 12.2831 121.063 12.0947 120.328 12.0947C119.622 12.0947 119.029 12.2733 118.549 12.6304C118.069 12.9827 117.706 13.4769 117.461 14.1129C117.216 14.7441 117.094 15.4804 117.094 16.322ZM131.324 22.2225C130.608 22.2225 129.959 22.088 129.377 21.8188C128.793 21.5449 128.33 21.151 127.987 20.6373C127.644 20.1187 127.472 19.4924 127.472 18.7585C127.472 18.1127 127.6 17.5891 127.855 17.1879C128.109 16.7818 128.45 16.4638 128.876 16.2339C129.303 16.004 129.773 15.8327 130.287 15.7202C130.807 15.6027 131.329 15.5098 131.853 15.4412C132.54 15.3533 133.096 15.2871 133.522 15.2431C133.952 15.1943 134.267 15.1135 134.462 15.0009C134.664 14.8884 134.763 14.6927 134.763 14.4138V14.3551C134.763 13.631 134.566 13.0683 134.168 12.6671C133.776 12.2659 133.181 12.0653 132.382 12.0653C131.554 12.0653 130.905 12.2464 130.435 12.6084C129.964 12.9705 129.633 13.357 129.443 13.768L127.796 13.1808C128.09 12.4959 128.482 11.9626 128.972 11.581C129.467 11.1944 130.005 10.9253 130.589 10.7737C131.177 10.6171 131.756 10.5388 132.324 10.5388C132.686 10.5388 133.102 10.5829 133.573 10.6709C134.048 10.7541 134.506 10.9278 134.947 11.192C135.393 11.4562 135.763 11.855 136.057 12.3883C136.352 12.9216 136.498 13.6359 136.498 14.5312V21.9583H134.763V20.4318H134.676C134.558 20.6765 134.362 20.9382 134.088 21.217C133.813 21.4959 133.448 21.7333 132.992 21.929C132.537 22.1247 131.981 22.2225 131.324 22.2225ZM131.589 20.6667C132.275 20.6667 132.853 20.5321 133.324 20.263C133.798 19.994 134.157 19.6465 134.396 19.2209C134.642 18.7952 134.763 18.3475 134.763 17.8778V16.2926C134.69 16.3807 134.528 16.4614 134.278 16.5348C134.034 16.6033 133.749 16.6644 133.426 16.7183C133.108 16.7673 132.796 16.8113 132.493 16.8504C132.194 16.8847 131.951 16.914 131.765 16.9384C131.315 16.9972 130.893 17.0926 130.501 17.2246C130.114 17.3519 129.8 17.5451 129.56 17.8045C129.325 18.0589 129.207 18.4062 129.207 18.8466C129.207 19.4484 129.43 19.9034 129.876 20.2116C130.326 20.515 130.898 20.6667 131.589 20.6667ZM139.665 26.1856V10.6856H141.34V12.4763H141.546C141.674 12.2806 141.85 12.0311 142.075 11.7277C142.305 11.4195 142.634 11.1455 143.061 10.9058C143.492 10.6611 144.075 10.5388 144.81 10.5388C145.761 10.5388 146.598 10.7761 147.324 11.2507C148.049 11.7253 148.615 12.398 149.022 13.2689C149.428 14.1399 149.631 15.1673 149.631 16.3513C149.631 17.5451 149.428 18.58 149.022 19.4557C148.615 20.3266 148.052 21.0019 147.331 21.4813C146.611 21.9559 145.78 22.1932 144.84 22.1932C144.114 22.1932 143.533 22.0733 143.097 21.8336C142.661 21.5889 142.325 21.3125 142.091 21.0043C141.855 20.6911 141.674 20.4318 141.546 20.2263H141.4V26.1856H139.665ZM141.37 16.322C141.37 17.1734 141.494 17.9243 141.745 18.5751C141.995 19.2209 142.36 19.7272 142.84 20.0942C143.32 20.4563 143.908 20.6373 144.604 20.6373C145.329 20.6373 145.934 20.4464 146.419 20.0649C146.91 19.6783 147.277 19.1597 147.523 18.5089C147.772 17.8534 147.897 17.1244 147.897 16.322C147.897 15.5293 147.775 14.815 147.529 14.179C147.29 13.5381 146.924 13.0316 146.435 12.6598C145.95 12.2831 145.339 12.0947 144.604 12.0947C143.898 12.0947 143.305 12.2733 142.826 12.6304C142.346 12.9827 141.982 13.4769 141.738 14.1129C141.493 14.7441 141.37 15.4804 141.37 16.322ZM155.6 22.2225C154.885 22.2225 154.236 22.088 153.652 21.8188C153.069 21.5449 152.606 21.151 152.263 20.6373C151.92 20.1187 151.749 19.4924 151.749 18.7585C151.749 18.1127 151.876 17.5891 152.131 17.1879C152.386 16.7818 152.726 16.4638 153.153 16.2339C153.578 16.004 154.049 15.8327 154.564 15.7202C155.083 15.6027 155.605 15.5098 156.129 15.4412C156.815 15.3533 157.371 15.2871 157.798 15.2431C158.229 15.1943 158.542 15.1135 158.739 15.0009C158.939 14.8884 159.04 14.6927 159.04 14.4138V14.3551C159.04 13.631 158.842 13.0683 158.445 12.6671C158.053 12.2659 157.457 12.0653 156.659 12.0653C155.831 12.0653 155.181 12.2464 154.71 12.6084C154.241 12.9705 153.91 13.357 153.718 13.768L152.073 13.1808C152.366 12.4959 152.758 11.9626 153.248 11.581C153.743 11.1944 154.282 10.9253 154.866 10.7737C155.453 10.6171 156.031 10.5388 156.6 10.5388C156.963 10.5388 157.379 10.5829 157.849 10.6709C158.325 10.7541 158.783 10.9278 159.224 11.192C159.67 11.4562 160.04 11.855 160.334 12.3883C160.627 12.9216 160.775 13.6359 160.775 14.5312V21.9583H159.04V20.4318H158.952C158.834 20.6765 158.638 20.9382 158.364 21.217C158.089 21.4959 157.724 21.7333 157.269 21.929C156.812 22.1247 156.256 22.2225 155.6 22.2225ZM155.864 20.6667C156.551 20.6667 157.129 20.5321 157.599 20.263C158.075 19.994 158.432 19.6465 158.673 19.2209C158.917 18.7952 159.04 18.3475 159.04 17.8778V16.2926C158.966 16.3807 158.805 16.4614 158.555 16.5348C158.311 16.6033 158.026 16.6644 157.702 16.7183C157.384 16.7673 157.072 16.8113 156.768 16.8504C156.47 16.8847 156.228 16.914 156.041 16.9384C155.59 16.9972 155.168 17.0926 154.776 17.2246C154.389 17.3519 154.076 17.5451 153.836 17.8045C153.6 18.0589 153.483 18.4062 153.483 18.8466C153.483 19.4484 153.706 19.9034 154.153 20.2116C154.603 20.515 155.173 20.6667 155.864 20.6667Z" fill="#3E4155"/>
</svg>
