<svg width="124" height="28" viewBox="0 0 124 28" fill="none" xmlns="http://www.w3.org/2000/svg">
<path d="M41.7424 21.2293C40.6304 21.2293 39.6574 21.0139 38.8234 20.583C38.0033 20.1382 37.3709 19.5127 36.9261 18.7065C36.4813 17.9003 36.2589 16.9482 36.2589 15.8501C36.2589 14.752 36.4813 13.8068 36.9261 13.0145C37.3709 12.2223 38.0033 11.6176 38.8234 11.2006C39.6574 10.7697 40.6304 10.5543 41.7424 10.5543C42.3957 10.5543 43.0559 10.6516 43.7231 10.8462C44.3903 11.0408 44.9324 11.3188 45.3494 11.6802L44.4737 13.8485C44.1262 13.5705 43.737 13.3551 43.3061 13.2022C42.8752 13.0354 42.4582 12.952 42.0551 12.952C41.235 12.952 40.5956 13.2091 40.1369 13.7234C39.6921 14.2238 39.4697 14.9397 39.4697 15.871C39.4697 16.7883 39.6921 17.5111 40.1369 18.0393C40.5956 18.5536 41.235 18.8108 42.0551 18.8108C42.4443 18.8108 42.8544 18.7343 43.2852 18.5814C43.73 18.4285 44.1262 18.2061 44.4737 17.9142L45.3494 20.0826C44.9324 20.444 44.3903 20.729 43.7231 20.9375C43.0559 21.132 42.3957 21.2293 41.7424 21.2293ZM49.9427 21L45.4808 10.7628H48.7959L51.3605 17.2679L54.0084 10.7628H57.115L52.5906 21H49.9427Z" fill="#2D3748"/>
<path d="M62.3152 21V6.30092H63.7538L69.4041 16.9134L75.0127 6.30092H76.4513V21H74.8667V9.51179L69.967 18.7274H68.8411L63.8789 9.53264V21H62.3152ZM83.0704 21.1876C82.3754 21.1876 81.75 21.0556 81.194 20.7915C80.6519 20.5135 80.221 20.1382 79.9013 19.6656C79.5816 19.193 79.4217 18.6648 79.4217 18.081C79.4217 17.3443 79.6094 16.7606 79.9847 16.3297C80.3739 15.8988 81.0063 15.593 81.882 15.4123C82.7716 15.2177 83.9809 15.1204 85.5099 15.1204H86.1771V14.474C86.1771 13.6122 85.9964 12.9937 85.635 12.6184C85.2875 12.2292 84.7245 12.0346 83.9461 12.0346C83.3345 12.0346 82.7438 12.125 82.1739 12.3057C81.604 12.4725 81.0202 12.7504 80.4225 13.1396L79.8387 11.9095C80.3669 11.5342 81.0063 11.2354 81.7569 11.013C82.5214 10.7906 83.2511 10.6794 83.9461 10.6794C85.2527 10.6794 86.2188 10.9991 86.8442 11.6385C87.4836 12.2779 87.8033 13.2717 87.8033 14.62V21H86.2188V19.2486C85.9547 19.8463 85.5446 20.3189 84.9886 20.6664C84.4465 21.0139 83.8071 21.1876 83.0704 21.1876ZM83.3415 19.9158C84.1755 19.9158 84.8566 19.6309 85.3848 19.061C85.913 18.4772 86.1771 17.7405 86.1771 16.8509V16.2254H85.5307C84.4048 16.2254 83.5152 16.281 82.8619 16.3922C82.2225 16.4895 81.7708 16.6702 81.5067 16.9343C81.2565 17.1845 81.1314 17.532 81.1314 17.9768C81.1314 18.5467 81.326 19.0123 81.7152 19.3737C82.1183 19.7351 82.6604 19.9158 83.3415 19.9158ZM94.3559 21.1876C93.5636 21.1876 92.813 21.0764 92.1041 20.8541C91.3952 20.6317 90.8114 20.3189 90.3527 19.9158L90.8948 18.7274C91.3952 19.1305 91.9442 19.4293 92.5419 19.6239C93.1535 19.8046 93.7721 19.895 94.3976 19.895C95.1898 19.895 95.7875 19.749 96.1906 19.4571C96.5937 19.1652 96.7953 18.7691 96.7953 18.2687C96.7953 17.8795 96.6632 17.5737 96.3991 17.3513C96.135 17.115 95.718 16.9343 95.1481 16.8092L93.2508 16.3922C91.5272 16.0169 90.6654 15.1273 90.6654 13.7234C90.6654 12.806 91.0268 12.0694 91.7496 11.5134C92.4863 10.9574 93.4454 10.6794 94.6269 10.6794C95.3219 10.6794 95.9821 10.7906 96.6076 11.013C97.247 11.2215 97.7752 11.5342 98.1922 11.9512L97.6293 13.1396C97.2262 12.7643 96.7536 12.4794 96.2115 12.2848C95.6833 12.0763 95.1551 11.9721 94.6269 11.9721C93.8485 11.9721 93.2578 12.125 92.8547 12.4308C92.4516 12.7365 92.25 13.1396 92.25 13.64C92.25 14.4184 92.7643 14.9188 93.7929 15.1412L95.6902 15.5374C96.5798 15.732 97.254 16.0447 97.7127 16.4756C98.1714 16.8926 98.4007 17.4625 98.4007 18.1853C98.4007 19.1166 98.0324 19.8533 97.2957 20.3954C96.559 20.9236 95.579 21.1876 94.3559 21.1876ZM105.186 21.1876C104.199 21.1876 103.344 20.9722 102.622 20.5413C101.899 20.1104 101.336 19.5058 100.933 18.7274C100.544 17.9351 100.349 17.0038 100.349 15.9335C100.349 14.8632 100.544 13.9389 100.933 13.1605C101.336 12.3682 101.899 11.7566 102.622 11.3257C103.344 10.8948 104.199 10.6794 105.186 10.6794C106.159 10.6794 107.007 10.8948 107.73 11.3257C108.467 11.7566 109.029 12.3682 109.419 13.1605C109.822 13.9389 110.023 14.8632 110.023 15.9335C110.023 17.0038 109.822 17.9351 109.419 18.7274C109.029 19.5058 108.467 20.1104 107.73 20.5413C107.007 20.9722 106.159 21.1876 105.186 21.1876ZM105.186 19.8324C106.131 19.8324 106.889 19.4988 107.459 18.8316C108.029 18.1505 108.314 17.1845 108.314 15.9335C108.314 14.6686 108.029 13.7026 107.459 13.0354C106.889 12.3682 106.131 12.0346 105.186 12.0346C104.227 12.0346 103.463 12.3682 102.893 13.0354C102.337 13.7026 102.059 14.6686 102.059 15.9335C102.059 17.1845 102.337 18.1505 102.893 18.8316C103.463 19.4988 104.227 19.8324 105.186 19.8324ZM112.56 21V10.867H114.207V12.5975C114.541 11.9582 115.013 11.4786 115.625 11.1589C116.236 10.8392 116.925 10.6794 117.689 10.6794C120.094 10.6794 121.296 12.0138 121.296 14.6825V21H119.607V14.7868C119.607 13.8416 119.42 13.1535 119.044 12.7226C118.683 12.2779 118.099 12.0555 117.293 12.0555C116.362 12.0555 115.618 12.3474 115.062 12.9311C114.52 13.501 114.249 14.2655 114.249 15.2246V21H112.56Z" fill="#2D3748"/>
<rect y="0.588577" width="27.3099" height="27.3099" rx="5.88575" fill="#2D3748"/>
<rect x="5.17953" y="5.76805" width="8.47549" height="8.47549" fill="#81E6D9"/>
<rect x="5.17953" y="14.2435" width="8.47549" height="8.47549" fill="#319795"/>
<rect x="13.655" y="14.2435" width="8.47549" height="8.47549" fill="#81E6D9"/>
</svg>
