<svg width="130" height="23" viewBox="0 0 130 23" fill="none" xmlns="http://www.w3.org/2000/svg">
<path d="M10.2763 1.62278L7.40791 4.10167C7.21668 3.40315 6.9922 2.87074 6.73446 2.50444C6.47672 2.13815 6.18988 1.955 5.87395 1.955C5.65778 1.955 5.49149 2.03593 5.3751 2.19778C5.26701 2.35111 5.21297 2.57685 5.21297 2.875C5.21297 3.6587 5.48734 4.35296 6.03607 4.95778C6.5848 5.55407 7.25825 5.85222 8.05641 5.85222H8.79221L7.96911 7.92222H6.06101V16.5344H7.54509V18.1572H0.623561V16.5344H1.50902V7.92222H0L0.823101 5.85222H2.12011C1.84574 5.47741 1.65452 5.1537 1.54643 4.88111C1.43835 4.60852 1.38431 4.31463 1.38431 3.99944C1.38431 3.53944 1.52149 3.09648 1.79586 2.67056C2.07854 2.23611 2.49424 1.82296 3.04298 1.43111C3.65823 1.00519 4.35661 0.660185 5.13814 0.396111C5.91967 0.132037 6.62638 0 7.25825 0C7.95664 0 8.54694 0.132037 9.02916 0.396111C9.51138 0.651667 9.92709 1.06056 10.2763 1.62278Z" fill="#2C3649"/>
<path d="M16.3997 0.102222V1.75056L15.4643 2.05722V16.5344H16.3498V18.1572H10.0144V16.5344H10.9123V3.55222L10.0144 3.84611V2.19778L16.3997 0.102222Z" fill="#2C3649"/>
<path d="M24.1817 4.945H24.3688V13.7617C24.3688 14.3154 24.4727 14.7328 24.6805 15.0139C24.8967 15.295 25.2168 15.4356 25.6408 15.4356C25.9485 15.4356 26.2644 15.3589 26.5886 15.2056C26.9129 15.0522 27.208 14.8393 27.4741 14.5667V7.76889L26.6136 7.92222V6.46556L31.8764 4.945H32.0261V16.5344H32.924V18.1572H27.7859L27.2496 16.5856C26.5845 17.2159 25.9194 17.6972 25.2542 18.0294C24.5974 18.3617 23.9697 18.5278 23.3711 18.5278C22.2487 18.5278 21.3715 18.1828 20.7396 17.4928C20.1078 16.7943 19.7918 15.8189 19.7918 14.5667V7.76889L18.9188 7.92222V6.46556L24.1817 4.945Z" fill="#2C3649"/>
<path d="M45.2456 1.62278L42.3772 4.10167C42.186 3.40315 41.9615 2.87074 41.7038 2.50444C41.446 2.13815 41.1592 1.955 40.8433 1.955C40.6271 1.955 40.4608 2.03593 40.3444 2.19778C40.2363 2.35111 40.1823 2.57685 40.1823 2.875C40.1823 3.6587 40.4566 4.35296 41.0054 4.95778C41.5541 5.55407 42.2276 5.85222 43.0257 5.85222H43.7615L42.9384 7.92222H41.0303V16.5344H42.5144V18.1572H35.5929V16.5344H36.4783V7.92222H34.9693L35.7924 5.85222H37.0894C36.815 5.47741 36.6238 5.1537 36.5157 4.88111C36.4076 4.60852 36.3536 4.31463 36.3536 3.99944C36.3536 3.53944 36.4908 3.09648 36.7652 2.67056C37.0478 2.23611 37.4635 1.82296 38.0123 1.43111C38.6275 1.00519 39.3259 0.660185 40.1074 0.396111C40.889 0.132037 41.5957 0 42.2276 0C42.9259 0 43.5162 0.132037 43.9985 0.396111C44.4807 0.651667 44.8964 1.06056 45.2456 1.62278Z" fill="#2C3649"/>
<path d="M54.6988 1.62278L51.8304 4.10167C51.6392 3.40315 51.4147 2.87074 51.157 2.50444C50.8992 2.13815 50.6124 1.955 50.2964 1.955C50.0803 1.955 49.914 2.03593 49.7976 2.19778C49.6895 2.35111 49.6355 2.57685 49.6355 2.875C49.6355 3.6587 49.9098 4.35296 50.4586 4.95778C51.0073 5.55407 51.6807 5.85222 52.4789 5.85222H53.2147L52.3916 7.92222H50.4835V16.5344H51.9676V18.1572H45.0461V16.5344H45.9315V7.92222H44.4225L45.2456 5.85222H46.5426C46.2682 5.47741 46.077 5.1537 45.9689 4.88111C45.8608 4.60852 45.8068 4.31463 45.8068 3.99944C45.8068 3.53944 45.944 3.09648 46.2183 2.67056C46.501 2.23611 46.9167 1.82296 47.4655 1.43111C48.0807 1.00519 48.7791 0.660185 49.5606 0.396111C50.3422 0.132037 51.0489 0 51.6807 0C52.3791 0 52.9694 0.132037 53.4517 0.396111C53.9339 0.651667 54.3496 1.06056 54.6988 1.62278Z" fill="#2C3649"/>
<path d="M64.788 8.47167C64.6799 8.5313 64.5801 8.57389 64.4887 8.59944C64.3972 8.625 64.3099 8.63778 64.2268 8.63778C63.9524 8.63778 63.6157 8.56537 63.2166 8.42056C62.8175 8.26722 62.5224 8.19056 62.3312 8.19056C62.0568 8.19056 61.7866 8.31833 61.5205 8.57389C61.2628 8.82093 61.0217 9.18722 60.7972 9.67278L62.4808 13.4933L64.788 8.47167ZM59.0138 4.945C59.1219 5.39648 59.2757 5.90333 59.4753 6.46556C59.6831 7.01926 59.9699 7.71352 60.3358 8.54833C61.0591 7.15981 61.6577 6.24407 62.1316 5.80111C62.6138 5.34963 63.175 5.12389 63.8152 5.12389C64.1229 5.12389 64.5718 5.20481 65.1621 5.36667C65.7524 5.52 66.1889 5.59667 66.4716 5.59667C66.6795 5.59667 66.8832 5.56685 67.0827 5.50722C67.2822 5.43907 67.4693 5.34537 67.6439 5.22611L68.1802 5.80111C68.0305 6.02259 67.8518 6.32926 67.6439 6.72111C67.4444 7.11296 67.1991 7.62833 66.9081 8.26722L62.1067 18.7322C61.4166 20.2144 60.7057 21.2963 59.9741 21.9778C59.2508 22.6593 58.436 23 57.5297 23C57.1805 23 56.8314 22.9617 56.4822 22.885C56.1413 22.8083 55.842 22.7061 55.5842 22.5783L56.3076 19.1283C56.7482 19.3498 57.1307 19.5117 57.4549 19.6139C57.7875 19.7246 58.0868 19.78 58.3528 19.78C58.7602 19.78 59.1177 19.682 59.4254 19.4861C59.733 19.2902 59.9616 19.0133 60.1113 18.6556L60.4106 17.9272L55.5343 8.57389L54.7487 8.91889L54.1625 7.74333L59.0138 4.945Z" fill="#2C3649"/>
<path d="M78.4689 6.37611L76.6107 9.39167C75.8874 8.51426 75.2472 7.86685 74.6901 7.44944C74.1414 7.03204 73.6509 6.82333 73.2185 6.82333C72.9774 6.82333 72.7821 6.89574 72.6324 7.04056C72.4911 7.17685 72.4204 7.36 72.4204 7.59C72.4204 7.86259 72.5576 8.12667 72.8319 8.38222C73.1146 8.63778 73.6758 8.98278 74.5155 9.41722C76.3696 10.3713 77.5502 11.1465 78.0574 11.7428C78.5729 12.3391 78.8306 13.0546 78.8306 13.8894C78.8306 15.1757 78.2985 16.2704 77.2343 17.1733C76.1784 18.0763 74.8647 18.5278 73.2934 18.5278C72.3622 18.5278 71.4726 18.3744 70.6245 18.0678C69.7848 17.7526 68.9866 17.2841 68.2301 16.6622L70.3252 13.34C71.2315 14.3622 72.0421 15.1331 72.7571 15.6528C73.4721 16.1724 74.0749 16.4322 74.5654 16.4322C74.8481 16.4322 75.0643 16.3641 75.2139 16.2278C75.3636 16.083 75.4384 15.8785 75.4384 15.6144C75.4384 15.163 74.6777 14.5241 73.1562 13.6978C73.1479 13.6893 73.1437 13.685 73.1437 13.685C73.0523 13.6339 72.9275 13.5657 72.7696 13.4806C70.4915 12.2198 69.3525 10.8313 69.3525 9.315C69.3525 8.02019 69.7931 6.96815 70.6744 6.15889C71.564 5.34963 72.7322 4.945 74.1788 4.945C74.9354 4.945 75.6671 5.06426 76.3738 5.30278C77.0805 5.5413 77.7789 5.89907 78.4689 6.37611Z" fill="#2C3649"/>
<path d="M87.0865 0.102222V1.75056L86.1512 2.05722V7.19389C87.0325 6.43574 87.8514 5.87352 88.608 5.50722C89.3646 5.13241 90.0672 4.945 90.7157 4.945C91.8381 4.945 92.7152 5.29426 93.3471 5.99278C93.979 6.68278 94.2949 7.64963 94.2949 8.89333V16.5344H95.1928V18.1572H88.8575V16.5344H89.7429V9.69833C89.7429 9.14463 89.6265 8.72722 89.3937 8.44611C89.1692 8.165 88.8284 8.02444 88.3711 8.02444C88.0136 8.02444 87.6394 8.11815 87.2487 8.30556C86.8662 8.48444 86.5004 8.74 86.1512 9.07222V16.5344H87.0367V18.1572H80.7013V16.5344H81.5992V3.55222L80.7013 3.84611V2.19778L87.0865 0.102222Z" fill="#2C3649"/>
<path d="M107.24 11.04L102.289 13.11C102.663 13.8681 103.125 14.4431 103.673 14.835C104.23 15.2183 104.866 15.41 105.581 15.41C106.163 15.41 106.708 15.2993 107.215 15.0778C107.722 14.8563 108.192 14.5241 108.624 14.0811L109.547 15.0906C108.666 16.2576 107.697 17.1222 106.641 17.6844C105.586 18.2467 104.409 18.5278 103.112 18.5278C101.366 18.5278 99.9361 17.8974 98.822 16.6367C97.7079 15.3674 97.1508 13.7531 97.1508 11.7939C97.1508 9.86018 97.7577 8.23741 98.9716 6.92556C100.194 5.60519 101.657 4.945 103.361 4.945C104.234 4.945 105.037 5.11537 105.768 5.45611C106.5 5.78833 107.144 6.28667 107.701 6.95111C108.167 7.48778 108.562 8.10111 108.886 8.79111C109.219 9.48111 109.385 9.95815 109.385 10.2222C109.385 10.3244 109.144 10.4394 108.662 10.5672C108.18 10.6865 107.706 10.8441 107.24 11.04ZM104.846 9.81333C104.563 8.91037 104.218 8.22037 103.81 7.74333C103.411 7.25778 102.979 7.015 102.513 7.015C102.123 7.015 101.815 7.18963 101.591 7.53889C101.374 7.88815 101.266 8.3737 101.266 8.99556C101.266 9.37889 101.295 9.7537 101.354 10.12C101.42 10.4863 101.512 10.8356 101.628 11.1678L104.846 9.81333Z" fill="#2C3649"/>
<path d="M117.716 0.102222V1.75056L116.781 2.05722V16.5344H117.666V18.1572H111.331V16.5344H112.229V3.55222L111.331 3.84611V2.19778L117.716 0.102222Z" fill="#2C3649"/>
<path d="M130 1.62278L127.132 4.10167C126.94 3.40315 126.716 2.87074 126.458 2.50444C126.2 2.13815 125.914 1.955 125.598 1.955C125.381 1.955 125.215 2.03593 125.099 2.19778C124.991 2.35111 124.937 2.57685 124.937 2.875C124.937 3.6587 125.211 4.35296 125.76 4.95778C126.309 5.55407 126.982 5.85222 127.78 5.85222H128.516L127.693 7.92222H125.785V16.5344H127.269V18.1572H120.347V16.5344H121.233V7.92222H119.724L120.547 5.85222H121.844C121.569 5.47741 121.378 5.1537 121.27 4.88111C121.162 4.60852 121.108 4.31463 121.108 3.99944C121.108 3.53944 121.245 3.09648 121.52 2.67056C121.802 2.23611 122.218 1.82296 122.767 1.43111C123.382 1.00519 124.08 0.660185 124.862 0.396111C125.643 0.132037 126.35 0 126.982 0C127.68 0 128.271 0.132037 128.753 0.396111C129.235 0.651667 129.651 1.06056 130 1.62278Z" fill="#2C3649"/>
</svg>
