<svg width="117" height="30" viewBox="0 0 117 30" fill="none" xmlns="http://www.w3.org/2000/svg">
<path d="M48.3622 19.3443H46.3093V14.8401C46.3093 14.2069 46.1969 13.7421 45.9722 13.446C45.7578 13.1395 45.4565 12.9863 45.0683 12.9863C44.67 12.9863 44.287 13.1447 43.9193 13.4613C43.5618 13.7677 43.3065 14.1711 43.1533 14.6716V19.3443H41.1004V14.8401C41.1004 14.1967 40.988 13.7268 40.7633 13.4306C40.5488 13.1344 40.2475 12.9863 39.8594 12.9863C39.4611 12.9863 39.0781 13.1395 38.7104 13.446C38.3529 13.7524 38.0975 14.1558 37.9443 14.6563V19.3443H35.8914V11.3164H37.7452V12.8025C38.0516 12.2816 38.4601 11.8833 38.9708 11.6075C39.4815 11.3215 40.0688 11.1785 40.7327 11.1785C41.3965 11.1785 41.9123 11.3419 42.28 11.6688C42.6579 11.9956 42.8979 12.3991 43.0001 12.8791C43.3269 12.3276 43.7406 11.9088 44.241 11.6228C44.7517 11.3266 45.3237 11.1785 45.9569 11.1785C46.4574 11.1785 46.8608 11.2705 47.1672 11.4543C47.4839 11.6279 47.729 11.8679 47.9026 12.1744C48.0762 12.4706 48.1937 12.8076 48.255 13.1855C48.3265 13.5634 48.3622 13.9464 48.3622 14.3345V19.3443ZM49.598 16.9696C49.598 16.4488 49.741 15.9942 50.027 15.6061C50.3232 15.2078 50.7317 14.9014 51.2526 14.6869C51.7735 14.4724 52.371 14.3652 53.0451 14.3652C53.3822 14.3652 53.7243 14.3907 54.0716 14.4418C54.4189 14.4928 54.7202 14.5746 54.9755 14.6869V14.2579C54.9755 13.7473 54.8223 13.354 54.5159 13.0783C54.2197 12.8025 53.7754 12.6646 53.183 12.6646C52.7438 12.6646 52.3251 12.7412 51.9267 12.8944C51.5284 13.0476 51.1097 13.2723 50.6705 13.5685L50.0117 12.2203C50.5428 11.8731 51.0841 11.6126 51.6357 11.439C52.1974 11.2653 52.7847 11.1785 53.3975 11.1785C54.5414 11.1785 55.43 11.4645 56.0633 12.0365C56.7067 12.6084 57.0284 13.4255 57.0284 14.4877V17.0463C57.0284 17.2607 57.0642 17.4139 57.1357 17.5059C57.2174 17.5978 57.3451 17.654 57.5187 17.6744V19.3443C57.3348 19.375 57.1663 19.4005 57.0131 19.4209C56.8701 19.4413 56.7476 19.4516 56.6454 19.4516C56.2369 19.4516 55.9254 19.3596 55.7109 19.1758C55.5066 18.9919 55.3789 18.7672 55.3279 18.5017L55.2819 18.088C54.9347 18.5374 54.5006 18.8847 53.9797 19.1298C53.4588 19.375 52.9277 19.4975 52.3864 19.4975C51.8552 19.4975 51.3752 19.3903 50.9462 19.1758C50.5275 18.9511 50.1955 18.6498 49.9504 18.2719C49.7155 17.8838 49.598 17.4497 49.598 16.9696ZM54.5925 17.3833C54.7048 17.2607 54.7968 17.1382 54.8683 17.0156C54.9398 16.893 54.9755 16.7807 54.9755 16.6786V15.8666C54.7304 15.7644 54.4648 15.6878 54.1788 15.6368C53.8929 15.5755 53.6222 15.5449 53.3669 15.5449C52.8358 15.5449 52.3966 15.6623 52.0493 15.8972C51.7123 16.1219 51.5437 16.4232 51.5437 16.8011C51.5437 17.0054 51.5999 17.1995 51.7123 17.3833C51.8246 17.5671 51.988 17.7152 52.2025 17.8276C52.417 17.9399 52.6723 17.9961 52.9685 17.9961C53.2749 17.9961 53.5762 17.9399 53.8724 17.8276C54.1686 17.705 54.4086 17.5569 54.5925 17.3833ZM58.9468 19.3443V11.3164H60.9998V19.3443H58.9468ZM58.9468 10.198V8.16041H60.9998V10.198H58.9468ZM62.8364 8.16041H64.8894V16.7705C64.8894 17.1382 64.9507 17.3884 65.0732 17.5212C65.1958 17.6437 65.3643 17.705 65.5788 17.705C65.7422 17.705 65.9107 17.6846 66.0844 17.6437C66.258 17.6029 66.4112 17.5518 66.544 17.4905L66.8197 19.0532C66.544 19.186 66.2222 19.2881 65.8546 19.3596C65.4869 19.4311 65.1549 19.4669 64.8587 19.4669C64.2153 19.4669 63.7148 19.2984 63.3573 18.9613C63.0101 18.614 62.8364 18.1238 62.8364 17.4905V8.16041ZM68.1432 19.3443V8.46682H72.6474C73.1172 8.46682 73.5462 8.56385 73.9343 8.7579C74.3326 8.95196 74.6748 9.21752 74.9608 9.55457C75.2467 9.8814 75.4714 10.2491 75.6349 10.6576C75.7983 11.056 75.88 11.4645 75.88 11.8833C75.88 12.4757 75.7472 13.0374 75.4816 13.5685C75.2263 14.0894 74.8637 14.5133 74.3939 14.8401C73.9241 15.1669 73.3725 15.3304 72.7393 15.3304H69.2156V19.3443H68.1432ZM69.2156 14.3805H72.6933C73.1223 14.3805 73.4951 14.263 73.8117 14.0281C74.1283 13.7932 74.3735 13.4868 74.5471 13.1089C74.7207 12.731 74.8075 12.3225 74.8075 11.8833C74.8075 11.4339 74.7054 11.0202 74.5011 10.6423C74.2969 10.2644 74.0262 9.96822 73.6892 9.75373C73.3623 9.52903 72.9997 9.41668 72.6014 9.41668H69.2156V14.3805ZM77.4591 19.3443V11.3624H78.5008V19.3443H77.4591ZM77.4591 9.69245V8.16041H78.5008V9.69245H77.4591ZM83.9974 19.4516C83.4561 19.4516 82.9556 19.3392 82.496 19.1145C82.0364 18.8898 81.6381 18.5885 81.301 18.2106C80.9742 17.8225 80.7188 17.3833 80.535 16.893C80.3511 16.4028 80.2592 15.8972 80.2592 15.3763C80.2592 14.8146 80.346 14.2886 80.5197 13.7983C80.7035 13.2979 80.9589 12.8536 81.2857 12.4654C81.6227 12.0773 82.016 11.776 82.4654 11.5615C82.9148 11.3368 83.4152 11.2245 83.9668 11.2245C84.6511 11.2245 85.2435 11.3981 85.7439 11.7454C86.2546 12.0926 86.6836 12.5216 87.0309 13.0323V11.3624H87.9654V19.375C87.9654 20.1103 87.7867 20.7283 87.4292 21.2287C87.0819 21.7394 86.607 22.1224 86.0044 22.3778C85.412 22.6331 84.7634 22.7608 84.0587 22.7608C83.1497 22.7608 82.4143 22.5974 81.8525 22.2705C81.2908 21.9437 80.8312 21.5045 80.4737 20.953L81.1172 20.4474C81.4338 20.9479 81.8525 21.3206 82.3734 21.5658C82.9046 21.8109 83.4663 21.9335 84.0587 21.9335C84.5796 21.9335 85.0545 21.8364 85.4835 21.6424C85.9227 21.4585 86.2699 21.1777 86.5253 20.7998C86.7908 20.4219 86.9236 19.9469 86.9236 19.375V17.797C86.6172 18.2974 86.1984 18.7009 85.6673 19.0073C85.1362 19.3035 84.5796 19.4516 83.9974 19.4516ZM84.2885 18.5783C84.6051 18.5783 84.9064 18.5221 85.1924 18.4098C85.4886 18.2974 85.7593 18.1493 86.0044 17.9655C86.2495 17.7714 86.4538 17.5569 86.6172 17.322C86.7806 17.0871 86.8828 16.8471 86.9236 16.602V14.1354C86.7704 13.7473 86.5508 13.4051 86.2648 13.1089C85.9788 12.8025 85.652 12.5676 85.2843 12.4042C84.9268 12.2305 84.554 12.1437 84.1659 12.1437C83.7165 12.1437 83.3131 12.2407 82.9556 12.4348C82.6084 12.6187 82.3122 12.8689 82.067 13.1855C81.8321 13.4919 81.6483 13.8392 81.5155 14.2273C81.3827 14.6154 81.3163 15.0035 81.3163 15.3916C81.3163 15.8206 81.3929 16.2292 81.5461 16.6173C81.6993 16.9952 81.9087 17.3373 82.1743 17.6437C82.45 17.9399 82.7667 18.1697 83.1241 18.3332C83.4918 18.4966 83.88 18.5783 84.2885 18.5783ZM93.7131 19.4975C93.1411 19.4975 92.61 19.3903 92.1197 19.1758C91.6295 18.9511 91.2056 18.6498 90.8481 18.2719C90.4907 17.8838 90.2098 17.4395 90.0055 16.939C89.8115 16.4385 89.7144 15.9023 89.7144 15.3304C89.7144 14.5848 89.883 13.9005 90.22 13.2774C90.5673 12.6544 91.0422 12.159 91.6448 11.7913C92.2474 11.4134 92.9317 11.2245 93.6977 11.2245C94.4842 11.2245 95.1685 11.4134 95.7507 11.7913C96.3431 12.1693 96.8078 12.6697 97.1448 13.2927C97.4819 13.9056 97.6504 14.5797 97.6504 15.315C97.6504 15.3968 97.6504 15.4785 97.6504 15.5602C97.6504 15.6317 97.6453 15.6878 97.6351 15.7287H90.8022C90.8533 16.3007 91.0116 16.8113 91.2771 17.2607C91.5529 17.6999 91.9053 18.0523 92.3342 18.3178C92.7734 18.5732 93.2483 18.7009 93.759 18.7009C94.2799 18.7009 94.7702 18.5681 95.2298 18.3025C95.6996 18.037 96.0264 17.6897 96.2103 17.2607L97.1142 17.5059C96.9508 17.8838 96.7005 18.2259 96.3635 18.5323C96.0264 18.8387 95.6281 19.0788 95.1685 19.2524C94.7191 19.4158 94.234 19.4975 93.7131 19.4975ZM90.7715 14.978H96.6699C96.6291 14.3958 96.4707 13.8851 96.195 13.446C95.9294 13.0068 95.577 12.6646 95.1379 12.4195C94.7089 12.1641 94.234 12.0365 93.7131 12.0365C93.1922 12.0365 92.7172 12.1641 92.2883 12.4195C91.8593 12.6646 91.5069 13.0119 91.2312 13.4613C90.9656 13.9005 90.8124 14.406 90.7715 14.978ZM102.659 19.4975C102.087 19.4975 101.556 19.3903 101.066 19.1758C100.586 18.9511 100.167 18.6498 99.8093 18.2719C99.462 17.8838 99.1914 17.4446 98.9973 16.9543C98.8032 16.4539 98.7062 15.9279 98.7062 15.3763C98.7062 14.8044 98.8032 14.2733 98.9973 13.783C99.1914 13.2825 99.4671 12.8433 99.8246 12.4654C100.182 12.0773 100.601 11.776 101.081 11.5615C101.571 11.3368 102.102 11.2245 102.674 11.2245C103.246 11.2245 103.772 11.3368 104.252 11.5615C104.732 11.776 105.151 12.0773 105.508 12.4654C105.866 12.8433 106.142 13.2825 106.336 13.783C106.53 14.2733 106.627 14.8044 106.627 15.3763C106.627 15.9279 106.53 16.4539 106.336 16.9543C106.142 17.4446 105.866 17.8838 105.508 18.2719C105.161 18.6498 104.742 18.9511 104.252 19.1758C103.772 19.3903 103.241 19.4975 102.659 19.4975ZM99.7633 15.3916C99.7633 15.984 99.891 16.5254 100.146 17.0156C100.412 17.4957 100.764 17.8787 101.203 18.1646C101.643 18.4404 102.128 18.5783 102.659 18.5783C103.19 18.5783 103.675 18.4353 104.114 18.1493C104.553 17.8633 104.906 17.4752 105.171 16.985C105.437 16.4845 105.57 15.9432 105.57 15.361C105.57 14.7686 105.437 14.2273 105.171 13.737C104.906 13.2468 104.553 12.8587 104.114 12.5727C103.675 12.2867 103.19 12.1437 102.659 12.1437C102.128 12.1437 101.643 12.2918 101.203 12.588C100.774 12.8842 100.427 13.2774 100.162 13.7677C99.8961 14.2477 99.7633 14.789 99.7633 15.3916ZM115.08 19.3443H114.038V14.8861C114.038 13.9464 113.9 13.2621 113.624 12.8331C113.348 12.394 112.914 12.1744 112.322 12.1744C111.913 12.1744 111.51 12.2765 111.112 12.4808C110.713 12.6748 110.361 12.9455 110.054 13.2927C109.758 13.6298 109.544 14.0179 109.411 14.4571V19.3443H108.369V11.3624H109.319V13.1702C109.534 12.7821 109.814 12.445 110.162 12.159C110.509 11.8628 110.902 11.633 111.341 11.4696C111.781 11.3062 112.235 11.2245 112.705 11.2245C113.144 11.2245 113.517 11.3062 113.823 11.4696C114.13 11.633 114.375 11.8679 114.559 12.1744C114.742 12.4706 114.875 12.8331 114.957 13.2621C115.039 13.6809 115.08 14.1507 115.08 14.6716V19.3443Z" fill="url(#paint0_linear_38_221)"/>
<path d="M0 12.6822V29.5858C3.99853 26.6075 5.33137 21.2526 5.33137 20.6509C5.33137 20.2255 5.77566 15.6871 5.77566 13.418C6.03261 8.00434 9.55592 6.56379 12.7195 6.55622C14.9335 6.55093 17.1646 7.33953 18.674 8.89062C19.0805 9.30837 19.4113 9.72721 19.7768 10.1464C20.1958 10.6271 20.7189 11.0116 21.2882 11.3195C23.1381 12.3201 24.6442 12.9669 24.8797 13.418C14.217 12.7372 17.4751 22.211 20.4369 27.033L21.2354 26.3378C23.9325 23.9897 26.3202 21.1799 27.0811 17.7661C29.3299 7.67744 22.3857 1.8814 17.7712 0.653893C8.7373 -1.29965 3.46662 3.57326 1.12658 7.58052C0.225576 9.12348 0 10.9143 0 12.6822Z" fill="url(#paint1_linear_38_221)"/>
<path d="M15.9941 9.99458C15.9941 10.6995 15.3974 11.271 14.6613 11.271C13.9252 11.271 13.3284 10.6995 13.3284 9.99458C13.3284 9.28964 13.9252 8.71818 14.6613 8.71818C15.3974 8.71818 15.9941 9.28964 15.9941 9.99458Z" fill="url(#paint2_linear_38_221)"/>
<defs>
<linearGradient id="paint0_linear_38_221" x1="75.9569" y1="6.34431" x2="75.9569" y2="21.3443" gradientUnits="userSpaceOnUse">
<stop stop-color="#3B2D48"/>
<stop offset="1" stop-color="#212121"/>
</linearGradient>
<linearGradient id="paint1_linear_38_221" x1="13.7588" y1="0.208801" x2="13.7588" y2="29.5858" gradientUnits="userSpaceOnUse">
<stop stop-color="#3B2D48"/>
<stop offset="1" stop-color="#212121"/>
</linearGradient>
<linearGradient id="paint2_linear_38_221" x1="13.7588" y1="0.208801" x2="13.7588" y2="29.5858" gradientUnits="userSpaceOnUse">
<stop stop-color="#3B2D48"/>
<stop offset="1" stop-color="#212121"/>
</linearGradient>
</defs>
</svg>
