<svg width="326" height="120" viewBox="0 0 326 120" fill="none" xmlns="http://www.w3.org/2000/svg">
<g filter="url(#filter0_i_50_25)">
<path d="M21.76 59.12C18.4533 59.12 15.4933 58.5867 12.88 57.52C10.32 56.4 8.13333 54.88 6.32 52.96C4.56 51.04 3.2 48.7467 2.24 46.08C1.33333 43.4133 0.88 40.48 0.88 37.28C0.88 34.1333 1.33333 31.2267 2.24 28.56C3.2 25.8933 4.56 23.6 6.32 21.68C8.13333 19.76 10.32 18.2667 12.88 17.2C15.4933 16.08 18.4533 15.52 21.76 15.52C25.0667 15.52 28 16.08 30.56 17.2C33.1733 18.2667 35.36 19.76 37.12 21.68C38.9333 23.6 40.2933 25.8933 41.2 28.56C42.16 31.2267 42.64 34.1333 42.64 37.28C42.64 40.48 42.16 43.4133 41.2 46.08C40.2933 48.7467 38.9333 51.04 37.12 52.96C35.36 54.88 33.1733 56.4 30.56 57.52C28 58.5867 25.0667 59.12 21.76 59.12ZM21.76 51.92C23.7867 51.92 25.5467 51.4933 27.04 50.64C28.5333 49.7867 29.76 48.6667 30.72 47.28C31.68 45.8933 32.3733 44.3467 32.8 42.64C33.28 40.88 33.52 39.0933 33.52 37.28C33.52 35.52 33.28 33.76 32.8 32C32.3733 30.24 31.68 28.6933 30.72 27.36C29.76 25.9733 28.5333 24.8533 27.04 24C25.5467 23.1467 23.7867 22.72 21.76 22.72C19.7333 22.72 17.9733 23.1467 16.48 24C14.9867 24.8533 13.76 25.9733 12.8 27.36C11.84 28.6933 11.12 30.24 10.64 32C10.2133 33.76 10 35.52 10 37.28C10 39.0933 10.2133 40.88 10.64 42.64C11.12 44.3467 11.84 45.8933 12.8 47.28C13.76 48.6667 14.9867 49.7867 16.48 50.64C17.9733 51.4933 19.7333 51.92 21.76 51.92ZM57.1019 44.72C57.3685 47.3867 58.3819 49.2533 60.1419 50.32C61.9019 51.3867 64.0085 51.92 66.4619 51.92C67.3152 51.92 68.2752 51.8667 69.3419 51.76C70.4619 51.6 71.5019 51.3333 72.4619 50.96C73.4219 50.5867 74.1952 50.0533 74.7819 49.36C75.4219 48.6133 75.7152 47.6533 75.6619 46.48C75.6085 45.3067 75.1819 44.3467 74.3819 43.6C73.5819 42.8533 72.5419 42.2667 71.2619 41.84C70.0352 41.36 68.6219 40.96 67.0219 40.64C65.4219 40.32 63.7952 39.9733 62.1419 39.6C60.4352 39.2267 58.7819 38.7733 57.1819 38.24C55.6352 37.7067 54.2219 36.9867 52.9419 36.08C51.7152 35.1733 50.7285 34.0267 49.9819 32.64C49.2352 31.2 48.8619 29.44 48.8619 27.36C48.8619 25.12 49.3952 23.2533 50.4619 21.76C51.5819 20.2133 52.9685 18.9867 54.6219 18.08C56.3285 17.12 58.1952 16.4533 60.2219 16.08C62.3019 15.7067 64.2752 15.52 66.1419 15.52C68.2752 15.52 70.3019 15.76 72.2219 16.24C74.1952 16.6667 75.9552 17.3867 77.5019 18.4C79.1019 19.4133 80.4085 20.7467 81.4219 22.4C82.4885 24 83.1552 25.9467 83.4219 28.24H73.9019C73.4752 26.0533 72.4619 24.5867 70.8619 23.84C69.3152 23.0933 67.5285 22.72 65.5019 22.72C64.8619 22.72 64.0885 22.7733 63.1819 22.88C62.3285 22.9867 61.5019 23.2 60.7019 23.52C59.9552 23.7867 59.3152 24.2133 58.7819 24.8C58.2485 25.3333 57.9819 26.0533 57.9819 26.96C57.9819 28.08 58.3552 28.9867 59.1019 29.68C59.9019 30.3733 60.9152 30.96 62.1419 31.44C63.4219 31.8667 64.8619 32.24 66.4619 32.56C68.0619 32.88 69.7152 33.2267 71.4219 33.6C73.0752 33.9733 74.7019 34.4267 76.3019 34.96C77.9019 35.4933 79.3152 36.2133 80.5419 37.12C81.8219 38.0267 82.8352 39.1733 83.5819 40.56C84.3819 41.9467 84.7819 43.6533 84.7819 45.68C84.7819 48.1333 84.2219 50.2133 83.1019 51.92C81.9819 53.6267 80.5152 55.0133 78.7019 56.08C76.9419 57.1467 74.9685 57.92 72.7819 58.4C70.5952 58.88 68.4352 59.12 66.3019 59.12C63.6885 59.12 61.2619 58.8267 59.0219 58.24C56.8352 57.6533 54.9152 56.7733 53.2619 55.6C51.6619 54.3733 50.3819 52.88 49.4219 51.12C48.5152 49.3067 48.0352 47.1733 47.9819 44.72H57.1019ZM120.106 33.68C120 32.24 119.68 30.8533 119.146 29.52C118.666 28.1867 117.973 27.04 117.066 26.08C116.213 25.0667 115.146 24.2667 113.866 23.68C112.64 23.04 111.253 22.72 109.706 22.72C108.106 22.72 106.64 23.0133 105.306 23.6C104.026 24.1333 102.906 24.9067 101.946 25.92C101.04 26.88 100.293 28.0267 99.7063 29.36C99.1729 30.6933 98.8796 32.1333 98.8263 33.68H120.106ZM98.8263 39.68C98.8263 41.28 99.0396 42.8267 99.4663 44.32C99.9463 45.8133 100.64 47.12 101.546 48.24C102.453 49.36 103.6 50.2667 104.986 50.96C106.373 51.6 108.026 51.92 109.946 51.92C112.613 51.92 114.746 51.36 116.346 50.24C118 49.0667 119.226 47.3333 120.026 45.04H128.666C128.186 47.28 127.36 49.28 126.186 51.04C125.013 52.8 123.6 54.2933 121.946 55.52C120.293 56.6933 118.426 57.5733 116.346 58.16C114.32 58.8 112.186 59.12 109.946 59.12C106.693 59.12 103.813 58.5867 101.306 57.52C98.7996 56.4533 96.6663 54.96 94.9063 53.04C93.1996 51.12 91.8929 48.8267 90.9863 46.16C90.1329 43.4933 89.7063 40.56 89.7063 37.36C89.7063 34.4267 90.1596 31.6533 91.0663 29.04C92.0263 26.3733 93.3596 24.0533 95.0663 22.08C96.8263 20.0533 98.9329 18.4533 101.386 17.28C103.84 16.1067 106.613 15.52 109.706 15.52C112.96 15.52 115.866 16.2133 118.426 17.6C121.04 18.9333 123.2 20.72 124.906 22.96C126.613 25.2 127.84 27.7867 128.586 30.72C129.386 33.6 129.6 36.5867 129.226 39.68H98.8263ZM136.159 16.64H144.799V22.4H145.039C145.733 21.3867 146.479 20.4533 147.279 19.6C148.079 18.7467 148.959 18.0267 149.919 17.44C150.933 16.8533 152.079 16.4 153.359 16.08C154.639 15.7067 156.106 15.52 157.759 15.52C160.266 15.52 162.586 16.08 164.719 17.2C166.906 18.32 168.453 20.0533 169.359 22.4C170.906 20.2667 172.693 18.5867 174.719 17.36C176.746 16.1333 179.279 15.52 182.319 15.52C186.693 15.52 190.079 16.5867 192.479 18.72C194.933 20.8533 196.159 24.4267 196.159 29.44V58H187.039V33.84C187.039 32.1867 186.986 30.6933 186.879 29.36C186.773 27.9733 186.453 26.8 185.919 25.84C185.439 24.8267 184.693 24.0533 183.679 23.52C182.666 22.9867 181.279 22.72 179.519 22.72C176.426 22.72 174.186 23.68 172.799 25.6C171.413 27.52 170.719 30.24 170.719 33.76V58H161.599V31.44C161.599 28.56 161.066 26.4 159.999 24.96C158.986 23.4667 157.093 22.72 154.319 22.72C153.146 22.72 151.999 22.96 150.879 23.44C149.813 23.92 148.853 24.6133 147.999 25.52C147.199 26.4267 146.533 27.5467 145.999 28.88C145.519 30.2133 145.279 31.7333 145.279 33.44V58H136.159V16.64ZM282.123 36.24L267.803 16.64H278.843L287.483 29.36L296.523 16.64H307.083L293.003 35.76L308.843 58H297.883L287.403 42.72L277.243 58H266.523L282.123 36.24ZM314.692 47.2H325.812V58H314.692V47.2ZM30.72 90.48C30.3467 87.92 29.3067 86 27.6 84.72C25.9467 83.3867 23.84 82.72 21.28 82.72C20.1067 82.72 18.8533 82.9333 17.52 83.36C16.1867 83.7333 14.96 84.48 13.84 85.6C12.72 86.6667 11.7867 88.1867 11.04 90.16C10.2933 92.08 9.92 94.6133 9.92 97.76C9.92 99.4667 10.1067 101.173 10.48 102.88C10.9067 104.587 11.5467 106.107 12.4 107.44C13.3067 108.773 14.4533 109.867 15.84 110.72C17.2267 111.52 18.9067 111.92 20.88 111.92C23.5467 111.92 25.7333 111.093 27.44 109.44C29.2 107.787 30.2933 105.467 30.72 102.48H39.84C38.9867 107.867 36.9333 112 33.68 114.88C30.48 117.707 26.2133 119.12 20.88 119.12C17.6267 119.12 14.7467 118.587 12.24 117.52C9.78667 116.4 7.70667 114.907 6 113.04C4.29333 111.12 2.98667 108.853 2.08 106.24C1.22667 103.627 0.8 100.8 0.8 97.76C0.8 94.6667 1.22667 91.76 2.08 89.04C2.93333 86.32 4.21333 83.9733 5.92 82C7.62667 79.9733 9.73333 78.4 12.24 77.28C14.8 76.1067 17.7867 75.52 21.2 75.52C23.6 75.52 25.8667 75.84 28 76.48C30.1867 77.0667 32.1067 77.9733 33.76 79.2C35.4667 80.4267 36.8533 81.9733 37.92 83.84C38.9867 85.7067 39.6267 87.92 39.84 90.48H30.72ZM66.2131 119.12C62.9065 119.12 59.9465 118.587 57.3331 117.52C54.7731 116.4 52.5865 114.88 50.7731 112.96C49.0131 111.04 47.6531 108.747 46.6931 106.08C45.7865 103.413 45.3331 100.48 45.3331 97.28C45.3331 94.1333 45.7865 91.2267 46.6931 88.56C47.6531 85.8933 49.0131 83.6 50.7731 81.68C52.5865 79.76 54.7731 78.2667 57.3331 77.2C59.9465 76.08 62.9065 75.52 66.2131 75.52C69.5198 75.52 72.4531 76.08 75.0131 77.2C77.6265 78.2667 79.8131 79.76 81.5731 81.68C83.3865 83.6 84.7465 85.8933 85.6531 88.56C86.6131 91.2267 87.0931 94.1333 87.0931 97.28C87.0931 100.48 86.6131 103.413 85.6531 106.08C84.7465 108.747 83.3865 111.04 81.5731 112.96C79.8131 114.88 77.6265 116.4 75.0131 117.52C72.4531 118.587 69.5198 119.12 66.2131 119.12ZM66.2131 111.92C68.2398 111.92 69.9998 111.493 71.4931 110.64C72.9865 109.787 74.2131 108.667 75.1731 107.28C76.1331 105.893 76.8265 104.347 77.2531 102.64C77.7331 100.88 77.9731 99.0933 77.9731 97.28C77.9731 95.52 77.7331 93.76 77.2531 92C76.8265 90.24 76.1331 88.6933 75.1731 87.36C74.2131 85.9733 72.9865 84.8533 71.4931 84C69.9998 83.1467 68.2398 82.72 66.2131 82.72C64.1865 82.72 62.4265 83.1467 60.9331 84C59.4398 84.8533 58.2131 85.9733 57.2531 87.36C56.2931 88.6933 55.5731 90.24 55.0931 92C54.6665 93.76 54.4531 95.52 54.4531 97.28C54.4531 99.0933 54.6665 100.88 55.0931 102.64C55.5731 104.347 56.2931 105.893 57.2531 107.28C58.2131 108.667 59.4398 109.787 60.9331 110.64C62.4265 111.493 64.1865 111.92 66.2131 111.92ZM94.675 76.64H103.315V82.4H103.555C104.248 81.3867 104.995 80.4533 105.795 79.6C106.595 78.7467 107.475 78.0267 108.435 77.44C109.448 76.8533 110.595 76.4 111.875 76.08C113.155 75.7067 114.622 75.52 116.275 75.52C118.782 75.52 121.102 76.08 123.235 77.2C125.422 78.32 126.968 80.0533 127.875 82.4C129.422 80.2667 131.208 78.5867 133.235 77.36C135.262 76.1333 137.795 75.52 140.835 75.52C145.208 75.52 148.595 76.5867 150.995 78.72C153.448 80.8533 154.675 84.4267 154.675 89.44V118H145.555V93.84C145.555 92.1867 145.502 90.6933 145.395 89.36C145.288 87.9733 144.968 86.8 144.435 85.84C143.955 84.8267 143.208 84.0533 142.195 83.52C141.182 82.9867 139.795 82.72 138.035 82.72C134.942 82.72 132.702 83.68 131.315 85.6C129.928 87.52 129.235 90.24 129.235 93.76V118H120.115V91.44C120.115 88.56 119.582 86.4 118.515 84.96C117.502 83.4667 115.608 82.72 112.835 82.72C111.662 82.72 110.515 82.96 109.395 83.44C108.328 83.92 107.368 84.6133 106.515 85.52C105.715 86.4267 105.048 87.5467 104.515 88.88C104.035 90.2133 103.795 91.7333 103.795 93.44V118H94.675V76.64Z" fill="#225036"/>
<path d="M242.089 58H233.129V52.24H232.969C231.849 54.32 230.169 56 227.929 57.28C225.742 58.5067 223.502 59.12 221.209 59.12C215.769 59.12 211.822 57.7867 209.369 55.12C206.969 52.4 205.769 48.32 205.769 42.88V16.64H214.889V42C214.889 45.6267 215.582 48.1867 216.969 49.68C218.355 51.1733 220.302 51.92 222.809 51.92C224.729 51.92 226.329 51.6267 227.609 51.04C228.889 50.4533 229.929 49.68 230.729 48.72C231.529 47.7067 232.089 46.5067 232.409 45.12C232.782 43.7333 232.969 42.24 232.969 40.64V16.64H242.089V58ZM251.946 0.879996H261.066V9.52H251.946V0.879996ZM251.946 16.64H261.066V58H251.946V16.64Z" fill="#D4D4D8"/>
</g>
<defs>
<filter id="filter0_i_50_25" x="0.799805" y="0.880005" width="325.012" height="122.24" filterUnits="userSpaceOnUse" color-interpolation-filters="sRGB">
<feFlood flood-opacity="0" result="BackgroundImageFix"/>
<feBlend mode="normal" in="SourceGraphic" in2="BackgroundImageFix" result="shape"/>
<feColorMatrix in="SourceAlpha" type="matrix" values="0 0 0 0 0 0 0 0 0 0 0 0 0 0 0 0 0 0 127 0" result="hardAlpha"/>
<feOffset dy="4"/>
<feGaussianBlur stdDeviation="2"/>
<feComposite in2="hardAlpha" operator="arithmetic" k2="-1" k3="1"/>
<feColorMatrix type="matrix" values="0 0 0 0 0 0 0 0 0 0 0 0 0 0 0 0 0 0 0.15 0"/>
<feBlend mode="normal" in2="shape" result="effect1_innerShadow_50_25"/>
</filter>
</defs>
</svg>
