<svg width="853" height="102" viewBox="0 0 853 102" fill="none" xmlns="http://www.w3.org/2000/svg">
<g filter="url(#filter0_i_41_4)">
<path d="M36.58 101.96C30.7933 101.96 25.6133 101.027 21.04 99.16C16.56 97.2 12.7333 94.54 9.56 91.18C6.48 87.82 4.1 83.8067 2.42 79.14C0.833334 74.4733 0.0400003 69.34 0.0400003 63.74C0.0400003 58.2333 0.833334 53.1467 2.42 48.48C4.1 43.8133 6.48 39.8 9.56 36.44C12.7333 33.08 16.56 30.4667 21.04 28.6C25.6133 26.64 30.7933 25.66 36.58 25.66C42.3667 25.66 47.5 26.64 51.98 28.6C56.5533 30.4667 60.38 33.08 63.46 36.44C66.6333 39.8 69.0133 43.8133 70.6 48.48C72.28 53.1467 73.12 58.2333 73.12 63.74C73.12 69.34 72.28 74.4733 70.6 79.14C69.0133 83.8067 66.6333 87.82 63.46 91.18C60.38 94.54 56.5533 97.2 51.98 99.16C47.5 101.027 42.3667 101.96 36.58 101.96ZM36.58 89.36C40.1267 89.36 43.2067 88.6133 45.82 87.12C48.4333 85.6267 50.58 83.6667 52.26 81.24C53.94 78.8133 55.1533 76.1067 55.9 73.12C56.74 70.04 57.16 66.9133 57.16 63.74C57.16 60.66 56.74 57.58 55.9 54.5C55.1533 51.42 53.94 48.7133 52.26 46.38C50.58 43.9533 48.4333 41.9933 45.82 40.5C43.2067 39.0067 40.1267 38.26 36.58 38.26C33.0333 38.26 29.9533 39.0067 27.34 40.5C24.7267 41.9933 22.58 43.9533 20.9 46.38C19.22 48.7133 17.96 51.42 17.12 54.5C16.3733 57.58 16 60.66 16 63.74C16 66.9133 16.3733 70.04 17.12 73.12C17.96 76.1067 19.22 78.8133 20.9 81.24C22.58 83.6667 24.7267 85.6267 27.34 87.12C29.9533 88.6133 33.0333 89.36 36.58 89.36ZM98.4283 76.76C98.8949 81.4267 100.668 84.6933 103.748 86.56C106.828 88.4267 110.515 89.36 114.808 89.36C116.302 89.36 117.982 89.2667 119.848 89.08C121.808 88.8 123.628 88.3333 125.308 87.68C126.988 87.0267 128.342 86.0933 129.368 84.88C130.488 83.5733 131.002 81.8933 130.908 79.84C130.815 77.7867 130.068 76.1067 128.668 74.8C127.268 73.4933 125.448 72.4667 123.208 71.72C121.062 70.88 118.588 70.18 115.788 69.62C112.988 69.06 110.142 68.4533 107.248 67.8C104.262 67.1467 101.368 66.3533 98.5683 65.42C95.8616 64.4867 93.3883 63.2267 91.1483 61.64C89.0016 60.0533 87.2749 58.0467 85.9683 55.62C84.6616 53.1 84.0083 50.02 84.0083 46.38C84.0083 42.46 84.9416 39.1933 86.8083 36.58C88.7683 33.8733 91.1949 31.7267 94.0883 30.14C97.0749 28.46 100.342 27.2933 103.888 26.64C107.528 25.9867 110.982 25.66 114.248 25.66C117.982 25.66 121.528 26.08 124.888 26.92C128.342 27.6667 131.422 28.9267 134.128 30.7C136.928 32.4733 139.215 34.8067 140.988 37.7C142.855 40.5 144.022 43.9067 144.488 47.92H127.828C127.082 44.0933 125.308 41.5267 122.508 40.22C119.802 38.9133 116.675 38.26 113.128 38.26C112.008 38.26 110.655 38.3533 109.068 38.54C107.575 38.7267 106.128 39.1 104.728 39.66C103.422 40.1267 102.302 40.8733 101.368 41.9C100.435 42.8333 99.9683 44.0933 99.9683 45.68C99.9683 47.64 100.622 49.2267 101.928 50.44C103.328 51.6533 105.102 52.68 107.248 53.52C109.488 54.2667 112.008 54.92 114.808 55.48C117.608 56.04 120.502 56.6467 123.488 57.3C126.382 57.9533 129.228 58.7467 132.028 59.68C134.828 60.6133 137.302 61.8733 139.448 63.46C141.688 65.0467 143.462 67.0533 144.768 69.48C146.168 71.9067 146.868 74.8933 146.868 78.44C146.868 82.7333 145.888 86.3733 143.928 89.36C141.968 92.3467 139.402 94.7733 136.228 96.64C133.148 98.5067 129.695 99.86 125.868 100.7C122.042 101.54 118.262 101.96 114.528 101.96C109.955 101.96 105.708 101.447 101.788 100.42C97.9616 99.3933 94.6016 97.8533 91.7083 95.8C88.9083 93.6533 86.6683 91.04 84.9883 87.96C83.4016 84.7867 82.5616 81.0533 82.4683 76.76H98.4283ZM208.686 57.44C208.499 54.92 207.939 52.4933 207.006 50.16C206.166 47.8267 204.953 45.82 203.366 44.14C201.873 42.3667 200.006 40.9667 197.766 39.94C195.619 38.82 193.193 38.26 190.486 38.26C187.686 38.26 185.119 38.7733 182.786 39.8C180.546 40.7333 178.586 42.0867 176.906 43.86C175.319 45.54 174.013 47.5467 172.986 49.88C172.053 52.2133 171.539 54.7333 171.446 57.44H208.686ZM171.446 67.94C171.446 70.74 171.819 73.4467 172.566 76.06C173.406 78.6733 174.619 80.96 176.206 82.92C177.793 84.88 179.799 86.4667 182.226 87.68C184.653 88.8 187.546 89.36 190.906 89.36C195.573 89.36 199.306 88.38 202.106 86.42C204.999 84.3667 207.146 81.3333 208.546 77.32H223.666C222.826 81.24 221.379 84.74 219.326 87.82C217.273 90.9 214.799 93.5133 211.906 95.66C209.013 97.7133 205.746 99.2533 202.106 100.28C198.559 101.4 194.826 101.96 190.906 101.96C185.213 101.96 180.173 101.027 175.786 99.16C171.399 97.2933 167.666 94.68 164.586 91.32C161.599 87.96 159.313 83.9467 157.726 79.28C156.233 74.6133 155.486 69.48 155.486 63.88C155.486 58.7467 156.279 53.8933 157.866 49.32C159.546 44.6533 161.879 40.5933 164.866 37.14C167.946 33.5933 171.633 30.7933 175.926 28.74C180.219 26.6867 185.073 25.66 190.486 25.66C196.179 25.66 201.266 26.8733 205.746 29.3C210.319 31.6333 214.099 34.76 217.086 38.68C220.073 42.6 222.219 47.1267 223.526 52.26C224.926 57.3 225.299 62.5267 224.646 67.94H171.446ZM236.779 27.62H251.899V37.7H252.319C253.532 35.9267 254.839 34.2933 256.239 32.8C257.639 31.3067 259.179 30.0467 260.859 29.02C262.632 27.9933 264.639 27.2 266.879 26.64C269.119 25.9867 271.686 25.66 274.579 25.66C278.966 25.66 283.026 26.64 286.759 28.6C290.586 30.56 293.292 33.5933 294.879 37.7C297.586 33.9667 300.712 31.0267 304.259 28.88C307.806 26.7333 312.239 25.66 317.559 25.66C325.212 25.66 331.139 27.5267 335.339 31.26C339.632 34.9933 341.779 41.2467 341.779 50.02V100H325.819V57.72C325.819 54.8267 325.726 52.2133 325.539 49.88C325.352 47.4533 324.792 45.4 323.859 43.72C323.019 41.9467 321.712 40.5933 319.939 39.66C318.166 38.7267 315.739 38.26 312.659 38.26C307.246 38.26 303.326 39.94 300.899 43.3C298.472 46.66 297.259 51.42 297.259 57.58V100H281.299V53.52C281.299 48.48 280.366 44.7 278.499 42.18C276.726 39.5667 273.412 38.26 268.559 38.26C266.506 38.26 264.499 38.68 262.539 39.52C260.672 40.36 258.992 41.5733 257.499 43.16C256.099 44.7467 254.932 46.7067 253.999 49.04C253.159 51.3733 252.739 54.0333 252.739 57.02V100H236.779V27.62ZM492.215 61.92L467.155 27.62H486.475L501.595 49.88L517.415 27.62H535.895L511.255 61.08L538.975 100H519.795L501.455 73.26L483.675 100H464.915L492.215 61.92ZM549.211 81.1H568.671V100H549.211V81.1ZM635.776 51.84C635.122 47.36 633.302 44 630.316 41.76C627.422 39.4267 623.736 38.26 619.256 38.26C617.202 38.26 615.009 38.6333 612.676 39.38C610.342 40.0333 608.196 41.34 606.236 43.3C604.276 45.1667 602.642 47.8267 601.336 51.28C600.029 54.64 599.376 59.0733 599.376 64.58C599.376 67.5667 599.702 70.5533 600.356 73.54C601.102 76.5267 602.222 79.1867 603.716 81.52C605.302 83.8533 607.309 85.7667 609.736 87.26C612.162 88.66 615.102 89.36 618.556 89.36C623.222 89.36 627.049 87.9133 630.036 85.02C633.116 82.1267 635.029 78.0667 635.776 72.84H651.736C650.242 82.2667 646.649 89.5 640.956 94.54C635.356 99.4867 627.889 101.96 618.556 101.96C612.862 101.96 607.822 101.027 603.436 99.16C599.142 97.2 595.502 94.5867 592.516 91.32C589.529 87.96 587.242 83.9933 585.656 79.42C584.162 74.8467 583.416 69.9 583.416 64.58C583.416 59.1667 584.162 54.08 585.656 49.32C587.149 44.56 589.389 40.4533 592.376 37C595.362 33.4533 599.049 30.7 603.436 28.74C607.916 26.6867 613.142 25.66 619.116 25.66C623.316 25.66 627.282 26.22 631.016 27.34C634.842 28.3667 638.202 29.9533 641.096 32.1C644.082 34.2467 646.509 36.9533 648.376 40.22C650.242 43.4867 651.362 47.36 651.736 51.84H635.776ZM697.889 101.96C692.102 101.96 686.922 101.027 682.349 99.16C677.869 97.2 674.042 94.54 670.869 91.18C667.789 87.82 665.409 83.8067 663.729 79.14C662.142 74.4733 661.349 69.34 661.349 63.74C661.349 58.2333 662.142 53.1467 663.729 48.48C665.409 43.8133 667.789 39.8 670.869 36.44C674.042 33.08 677.869 30.4667 682.349 28.6C686.922 26.64 692.102 25.66 697.889 25.66C703.675 25.66 708.809 26.64 713.289 28.6C717.862 30.4667 721.689 33.08 724.769 36.44C727.942 39.8 730.322 43.8133 731.909 48.48C733.589 53.1467 734.429 58.2333 734.429 63.74C734.429 69.34 733.589 74.4733 731.909 79.14C730.322 83.8067 727.942 87.82 724.769 91.18C721.689 94.54 717.862 97.2 713.289 99.16C708.809 101.027 703.675 101.96 697.889 101.96ZM697.889 89.36C701.435 89.36 704.515 88.6133 707.129 87.12C709.742 85.6267 711.889 83.6667 713.569 81.24C715.249 78.8133 716.462 76.1067 717.209 73.12C718.049 70.04 718.469 66.9133 718.469 63.74C718.469 60.66 718.049 57.58 717.209 54.5C716.462 51.42 715.249 48.7133 713.569 46.38C711.889 43.9533 709.742 41.9933 707.129 40.5C704.515 39.0067 701.435 38.26 697.889 38.26C694.342 38.26 691.262 39.0067 688.649 40.5C686.035 41.9933 683.889 43.9533 682.209 46.38C680.529 48.7133 679.269 51.42 678.429 54.5C677.682 57.58 677.309 60.66 677.309 63.74C677.309 66.9133 677.682 70.04 678.429 73.12C679.269 76.1067 680.529 78.8133 682.209 81.24C683.889 83.6667 686.035 85.6267 688.649 87.12C691.262 88.6133 694.342 89.36 697.889 89.36ZM747.697 27.62H762.817V37.7H763.237C764.45 35.9267 765.757 34.2933 767.157 32.8C768.557 31.3067 770.097 30.0467 771.777 29.02C773.55 27.9933 775.557 27.2 777.797 26.64C780.037 25.9867 782.604 25.66 785.497 25.66C789.884 25.66 793.944 26.64 797.677 28.6C801.504 30.56 804.21 33.5933 805.797 37.7C808.504 33.9667 811.63 31.0267 815.177 28.88C818.724 26.7333 823.157 25.66 828.477 25.66C836.13 25.66 842.057 27.5267 846.257 31.26C850.55 34.9933 852.697 41.2467 852.697 50.02V100H836.737V57.72C836.737 54.8267 836.644 52.2133 836.457 49.88C836.27 47.4533 835.71 45.4 834.777 43.72C833.937 41.9467 832.63 40.5933 830.857 39.66C829.084 38.7267 826.657 38.26 823.577 38.26C818.164 38.26 814.244 39.94 811.817 43.3C809.39 46.66 808.177 51.42 808.177 57.58V100H792.217V53.52C792.217 48.48 791.284 44.7 789.417 42.18C787.644 39.5667 784.33 38.26 779.477 38.26C777.424 38.26 775.417 38.68 773.457 39.52C771.59 40.36 769.91 41.5733 768.417 43.16C767.017 44.7467 765.85 46.7067 764.917 49.04C764.077 51.3733 763.657 54.0333 763.657 57.02V100H747.697V27.62Z" fill="#225036"/>
<path d="M422.155 100H406.475V89.92H406.195C404.235 93.56 401.295 96.5 397.375 98.74C393.549 100.887 389.629 101.96 385.615 101.96C376.095 101.96 369.189 99.6267 364.895 94.96C360.695 90.2 358.595 83.06 358.595 73.54V27.62H374.555V72C374.555 78.3467 375.769 82.8267 378.195 85.44C380.622 88.0533 384.029 89.36 388.415 89.36C391.775 89.36 394.575 88.8467 396.815 87.82C399.055 86.7933 400.875 85.44 402.275 83.76C403.675 81.9867 404.655 79.8867 405.215 77.46C405.869 75.0333 406.195 72.42 406.195 69.62V27.62H422.155V100ZM439.406 0.0399935H455.366V15.16H439.406V0.0399935ZM439.406 27.62H455.366V100H439.406V27.62Z" fill="#D4D4D8"/>
</g>
<defs>
<filter id="filter0_i_41_4" x="0.0400391" y="0.039978" width="852.657" height="105.92" filterUnits="userSpaceOnUse" color-interpolation-filters="sRGB">
<feFlood flood-opacity="0" result="BackgroundImageFix"/>
<feBlend mode="normal" in="SourceGraphic" in2="BackgroundImageFix" result="shape"/>
<feColorMatrix in="SourceAlpha" type="matrix" values="0 0 0 0 0 0 0 0 0 0 0 0 0 0 0 0 0 0 127 0" result="hardAlpha"/>
<feOffset dy="4"/>
<feGaussianBlur stdDeviation="2"/>
<feComposite in2="hardAlpha" operator="arithmetic" k2="-1" k3="1"/>
<feColorMatrix type="matrix" values="0 0 0 0 0 0 0 0 0 0 0 0 0 0 0 0 0 0 0.14 0"/>
<feBlend mode="normal" in2="shape" result="effect1_innerShadow_41_4"/>
</filter>
</defs>
</svg>
