<svg width="84" height="69" viewBox="0 0 84 69" fill="none" xmlns="http://www.w3.org/2000/svg">
<path d="M6.60551 5.14136C7.18219 4.30256 7.88118 3.63851 8.7025 3.14922C9.52382 2.65992 10.4063 2.41527 11.35 2.41527V7.89365H9.90827C8.78988 7.89365 7.95982 8.11209 7.4181 8.54896C6.87637 8.98584 6.60551 9.74599 6.60551 10.8294V17.2515H1.46789V2.54633H6.60551V5.14136ZM12.353 9.88579C12.353 8.36548 12.6238 7.03738 13.1656 5.90151C13.7248 4.76565 14.4762 3.8919 15.4198 3.28028C16.3809 2.66866 17.4469 2.36285 18.6177 2.36285C19.6313 2.36285 20.505 2.56381 21.239 2.96573C21.9729 3.36765 22.5409 3.90938 22.9428 4.5909V2.54633H28.0804V17.2515H22.9428V15.2069C22.5409 15.8884 21.9642 16.4301 21.2128 16.8321C20.4788 17.234 19.6138 17.435 18.6177 17.435C17.4469 17.435 16.3809 17.1291 15.4198 16.5175C14.4762 15.9059 13.7248 15.0322 13.1656 13.8963C12.6238 12.7429 12.353 11.4061 12.353 9.88579ZM22.9428 9.88579C22.9428 8.94215 22.6807 8.19946 22.1564 7.65774C21.6496 7.11602 21.0205 6.84516 20.2691 6.84516C19.5002 6.84516 18.8624 7.11602 18.3556 7.65774C17.8488 8.18199 17.5955 8.92467 17.5955 9.88579C17.5955 10.8294 17.8488 11.5809 18.3556 12.1401C18.8624 12.6818 19.5002 12.9526 20.2691 12.9526C21.0205 12.9526 21.6496 12.6818 22.1564 12.1401C22.6807 11.5983 22.9428 10.8469 22.9428 9.88579ZM36.1456 5.14136C36.7223 4.30256 37.4213 3.63851 38.2426 3.14922C39.0639 2.65992 39.9464 2.41527 40.89 2.41527V7.89365H39.4484C38.33 7.89365 37.4999 8.11209 36.9582 8.54896C36.4165 8.98584 36.1456 9.74599 36.1456 10.8294V17.2515H31.008V2.54633H36.1456V5.14136ZM56.7817 9.72852C56.7817 10.1304 56.7555 10.5324 56.7031 10.9343H46.9783C47.0307 11.7381 47.2491 12.341 47.6336 12.7429C48.0355 13.1274 48.5423 13.3196 49.1539 13.3196C50.0102 13.3196 50.6218 12.9352 50.9888 12.1663H56.4671C56.24 13.1798 55.7944 14.0885 55.1303 14.8924C54.4837 15.6787 53.6624 16.2991 52.6664 16.7534C51.6703 17.2078 50.5694 17.435 49.3636 17.435C47.9132 17.435 46.62 17.1291 45.4842 16.5175C44.3658 15.9059 43.4833 15.0322 42.8367 13.8963C42.2076 12.7604 41.8931 11.4236 41.8931 9.88579C41.8931 8.348 42.2076 7.01991 42.8367 5.90151C43.4658 4.76565 44.3396 3.8919 45.458 3.28028C46.5938 2.66866 47.8957 2.36285 49.3636 2.36285C50.814 2.36285 52.0984 2.65992 53.2168 3.25407C54.3352 3.84821 55.209 4.70448 55.8381 5.82288C56.4671 6.9238 56.7817 8.22568 56.7817 9.72852ZM51.5392 8.44411C51.5392 7.81502 51.3295 7.32572 50.9101 6.97622C50.4907 6.60925 49.9665 6.42576 49.3374 6.42576C48.7083 6.42576 48.1928 6.60051 47.7909 6.95001C47.3889 7.28203 47.1268 7.78007 47.0045 8.44411H51.5392Z" fill="#4B71BA"/>
<path d="M6.89385 22.6864C7.88992 22.6864 8.75493 22.8874 9.48887 23.2893C10.2403 23.6912 10.817 24.2329 11.2189 24.9144V22.8699H16.3565V37.4177C16.3565 38.7983 16.0944 40.039 15.5701 41.1399C15.0459 42.2583 14.2246 43.1495 13.1062 43.8136C12.0053 44.4776 10.6073 44.8096 8.9122 44.8096C6.64046 44.8096 4.82307 44.2766 3.46003 43.2107C2.09699 42.1447 1.31936 40.6943 1.12713 38.8594H6.18612C6.29097 39.3312 6.55309 39.6982 6.97249 39.9603C7.39188 40.2225 7.93361 40.3535 8.59765 40.3535C10.3451 40.3535 11.2189 39.3749 11.2189 37.4177V35.5304C10.817 36.212 10.2403 36.7537 9.48887 37.1556C8.75493 37.5575 7.88992 37.7585 6.89385 37.7585C5.72303 37.7585 4.65706 37.4527 3.69594 36.8411C2.7523 36.2294 2.00088 35.3557 1.44168 34.2198C0.899958 33.0665 0.629097 31.7297 0.629097 30.2093C0.629097 28.689 0.899958 27.3609 1.44168 26.2251C2.00088 25.0892 2.7523 24.2154 3.69594 23.6038C4.65706 22.9922 5.72303 22.6864 6.89385 22.6864ZM11.2189 30.2093C11.2189 29.2657 10.9568 28.523 10.4325 27.9813C9.92575 27.4396 9.29665 27.1687 8.54523 27.1687C7.77633 27.1687 7.1385 27.4396 6.63173 27.9813C6.12495 28.5055 5.87157 29.2482 5.87157 30.2093C5.87157 31.153 6.12495 31.9044 6.63173 32.4636C7.1385 33.0053 7.77633 33.2762 8.54523 33.2762C9.29665 33.2762 9.92575 33.0053 10.4325 32.4636C10.9568 31.9219 11.2189 31.1705 11.2189 30.2093ZM26.1255 37.7585C24.6576 37.7585 23.3383 37.4527 22.1675 36.8411C21.0141 36.2294 20.1054 35.3557 19.4414 34.2198C18.7773 33.084 18.4453 31.7471 18.4453 30.2093C18.4453 28.689 18.7773 27.3609 19.4414 26.2251C20.1229 25.0892 21.0403 24.2154 22.1937 23.6038C23.3645 22.9922 24.6838 22.6864 26.1517 22.6864C27.6196 22.6864 28.9302 22.9922 30.0836 23.6038C31.2544 24.2154 32.1718 25.0892 32.8359 26.2251C33.5174 27.3609 33.8582 28.689 33.8582 30.2093C33.8582 31.7297 33.5174 33.0665 32.8359 34.2198C32.1718 35.3557 31.2544 36.2294 30.0836 36.8411C28.9128 37.4527 27.5934 37.7585 26.1255 37.7585ZM26.1255 33.3024C26.842 33.3024 27.4361 33.0403 27.908 32.516C28.3973 31.9743 28.6419 31.2054 28.6419 30.2093C28.6419 29.2133 28.3973 28.4531 27.908 27.9289C27.4361 27.4046 26.8507 27.1425 26.1517 27.1425C25.4527 27.1425 24.8673 27.4046 24.3955 27.9289C23.9237 28.4531 23.6878 29.2133 23.6878 30.2093C23.6878 31.2229 23.915 31.9918 24.3693 32.516C24.8236 33.0403 25.4091 33.3024 26.1255 33.3024ZM42.7898 37.7585C41.3219 37.7585 40.0026 37.4527 38.8318 36.8411C37.6784 36.2294 36.7697 35.3557 36.1057 34.2198C35.4416 33.084 35.1096 31.7471 35.1096 30.2093C35.1096 28.689 35.4416 27.3609 36.1057 26.2251C36.7872 25.0892 37.7046 24.2154 38.858 23.6038C40.0288 22.9922 41.3481 22.6864 42.816 22.6864C44.2839 22.6864 45.5945 22.9922 46.7479 23.6038C47.9187 24.2154 48.8361 25.0892 49.5002 26.2251C50.1817 27.3609 50.5225 28.689 50.5225 30.2093C50.5225 31.7297 50.1817 33.0665 49.5002 34.2198C48.8361 35.3557 47.9187 36.2294 46.7479 36.8411C45.5771 37.4527 44.2577 37.7585 42.7898 37.7585ZM42.7898 33.3024C43.5063 33.3024 44.1004 33.0403 44.5723 32.516C45.0616 31.9743 45.3062 31.2054 45.3062 30.2093C45.3062 29.2133 45.0616 28.4531 44.5723 27.9289C44.1004 27.4046 43.515 27.1425 42.816 27.1425C42.117 27.1425 41.5316 27.4046 41.0598 27.9289C40.588 28.4531 40.3521 29.2133 40.3521 30.2093C40.3521 31.2229 40.5792 31.9918 41.0336 32.516C41.4879 33.0403 42.0734 33.3024 42.7898 33.3024ZM51.7739 30.2093C51.7739 28.689 52.0448 27.3609 52.5865 26.2251C53.1457 25.0892 53.9058 24.2154 54.867 23.6038C55.8281 22.9922 56.894 22.6864 58.0649 22.6864C59.0085 22.6864 59.8473 22.8874 60.5813 23.2893C61.3327 23.6737 61.9181 24.2067 62.3375 24.8882V18.1779H67.5013V37.575H62.3375V35.5304C61.9356 36.212 61.3676 36.7537 60.6337 37.1556C59.8997 37.5575 59.0347 37.7585 58.0387 37.7585C56.8678 37.7585 55.8019 37.4527 54.8407 36.8411C53.8971 36.2294 53.1457 35.3557 52.5865 34.2198C52.0448 33.0665 51.7739 31.7297 51.7739 30.2093ZM62.3637 30.2093C62.3637 29.2657 62.1016 28.523 61.5773 27.9813C61.0706 27.4396 60.4415 27.1687 59.69 27.1687C58.9211 27.1687 58.2833 27.4396 57.7765 27.9813C57.2698 28.5055 57.0164 29.2482 57.0164 30.2093C57.0164 31.153 57.2698 31.9044 57.7765 32.4636C58.2833 33.0053 58.9211 33.2762 59.69 33.2762C60.4415 33.2762 61.0706 33.0053 61.5773 32.4636C62.1016 31.9219 62.3637 31.1705 62.3637 30.2093ZM76.6937 37.7585C75.3656 37.7585 74.1773 37.5401 73.1288 37.1032C72.0978 36.6488 71.2764 36.0372 70.6648 35.2683C70.0707 34.482 69.7386 33.5995 69.6687 32.6209H74.6491C74.719 33.0927 74.9374 33.4597 75.3044 33.7218C75.6714 33.9839 76.1257 34.115 76.6674 34.115C77.0868 34.115 77.4189 34.0276 77.6635 33.8529C77.9082 33.6781 78.0305 33.4509 78.0305 33.1713C78.0305 32.8044 77.8295 32.5335 77.4276 32.3588C77.0257 32.184 76.3616 31.9918 75.4355 31.7821C74.387 31.5724 73.5132 31.3365 72.8142 31.0743C72.1152 30.8122 71.5036 30.3841 70.9794 29.7899C70.4726 29.1958 70.2192 28.3919 70.2192 27.3784C70.2192 26.5047 70.4551 25.7183 70.9269 25.0193C71.3988 24.3028 72.089 23.7349 72.9977 23.3155C73.9239 22.8961 75.0335 22.6864 76.3267 22.6864C78.2489 22.6864 79.7605 23.1582 80.8614 24.1019C81.9623 25.0455 82.6002 26.2862 82.7749 27.824H78.1353C78.048 27.3522 77.8383 26.994 77.5062 26.7493C77.1917 26.4872 76.7636 26.3561 76.2218 26.3561C75.8024 26.3561 75.4792 26.4348 75.252 26.592C75.0423 26.7493 74.9374 26.9677 74.9374 27.2473C74.9374 27.5968 75.1384 27.8677 75.5403 28.0599C75.9422 28.2347 76.5888 28.4182 77.48 28.6104C78.546 28.8376 79.4285 29.0909 80.1275 29.3705C80.8439 29.6501 81.4643 30.1045 81.9886 30.7336C82.5303 31.3452 82.8011 32.184 82.8011 33.25C82.8011 34.1062 82.5478 34.8751 82.041 35.5567C81.5517 36.2382 80.8439 36.7799 79.9178 37.1818C79.0091 37.5663 77.9344 37.7585 76.6937 37.7585Z" fill="#319795"/>
<path d="M26.0931 58.3664C24.6252 58.3664 23.3059 58.0606 22.135 57.449C20.9817 56.8374 20.073 55.9636 19.4089 54.8277C18.7449 53.6919 18.4129 52.355 18.4129 50.8173C18.4129 49.2969 18.7449 47.9688 19.4089 46.833C20.0905 45.6971 21.0079 44.8234 22.1612 44.2117C23.3321 43.6001 24.6514 43.2943 26.1193 43.2943C27.5872 43.2943 28.8978 43.6001 30.0512 44.2117C31.222 44.8234 32.1394 45.6971 32.8035 46.833C33.485 47.9688 33.8257 49.2969 33.8257 50.8173C33.8257 52.3376 33.485 53.6744 32.8035 54.8277C32.1394 55.9636 31.222 56.8374 30.0512 57.449C28.8803 58.0606 27.561 58.3664 26.0931 58.3664ZM26.0931 53.9103C26.8096 53.9103 27.4037 53.6482 27.8755 53.1239C28.3648 52.5822 28.6095 51.8133 28.6095 50.8173C28.6095 49.8212 28.3648 49.061 27.8755 48.5368C27.4037 48.0125 26.8183 47.7504 26.1193 47.7504C25.4203 47.7504 24.8349 48.0125 24.3631 48.5368C23.8913 49.061 23.6554 49.8212 23.6554 50.8173C23.6554 51.8308 23.8825 52.5997 24.3369 53.1239C24.7912 53.6482 25.3766 53.9103 26.0931 53.9103ZM45.5359 43.3467C47.231 43.3467 48.5765 43.9147 49.5726 45.0505C50.5687 46.1689 51.0667 47.6892 51.0667 49.6115V58.1829H45.9291V50.293C45.9291 49.4542 45.7107 48.7989 45.2738 48.3271C44.8369 47.8378 44.2515 47.5931 43.5176 47.5931C42.7487 47.5931 42.1458 47.8378 41.7089 48.3271C41.272 48.7989 41.0536 49.4542 41.0536 50.293V58.1829H35.916V43.4778H41.0536V45.5748C41.5079 44.9107 42.1196 44.3777 42.8885 43.9758C43.6574 43.5564 44.5398 43.3467 45.5359 43.3467ZM59.0234 38.7858V58.1829H53.8858V38.7858H59.0234ZM77.7814 43.4778L68.4498 65.1816H62.8666L66.379 57.5538L60.3502 43.4778H66.0645L69.1575 51.8133L72.1457 43.4778H77.7814Z" fill="#FFC107"/>
</svg>
