<svg width="130" height="37" viewBox="0 0 130 37" fill="none" xmlns="http://www.w3.org/2000/svg">
<path d="M4.91787 9.53754C-1.81258 12.5577 -0.201188 20.3239 1.44581 23.8295C0.591008 18.4362 2.5142 14.9308 3.58265 13.8522C9.51186 16.1173 10.6826 11.1106 10.5268 8.32416C15.174 12.7466 20.0304 10.1668 21.8777 8.32416C21.8243 15.2814 26.3959 14.9083 28.6883 13.8522C31.1455 14.823 31.2256 20.9083 30.9585 23.8296C35.1784 15.7398 30.3576 10.9758 27.4197 9.60504C27.5265 11.5466 26.1288 11.3578 25.4166 11.0208C24.3482 10.8051 24.6598 6.07707 24.9492 3.74001C24.5218 0.342301 20.8539 -0.14768 19.0734 0.0320425C20.302 0.894833 20.5646 2.99835 20.5423 3.94226C19.7411 8.04108 16.3803 8.03209 14.8001 7.51524C9.3249 5.02089 13.1051 0.0244405 13.2644 0.0320425C7.33514 -0.291549 6.96568 4.16682 7.5221 6.43646C8.00285 10.3196 7.09922 11.2903 6.58732 11.2903C5.14508 11.5061 4.87342 10.2117 4.91787 9.53754Z" fill="#F97339"/>
<path fill-rule="evenodd" clip-rule="evenodd" d="M21.1433 14.3915H11.1945C10.5935 14.3915 9.85907 14.9308 9.92584 14.9982C9.60534 15.6993 8.94654 16.5038 8.6572 16.8184L5.98638 18.5038C4.58421 18.9757 4.65098 21.2004 4.71775 21.2678C4.66477 21.5887 4.44546 21.9781 4.19166 22.3357C3.76224 22.9409 3.44911 23.6411 3.44911 24.3855V27.0582C3.44911 27.5396 3.80521 28.1635 4.10282 28.685C4.19936 28.8541 4.28973 29.0124 4.35981 29.1517C4.53464 29.4989 4.57967 29.9454 4.62448 30.3898C4.66444 30.786 4.70423 31.1805 4.83568 31.5015C5.04765 32.019 5.4091 32.3709 5.65253 32.5261L8.18488 34.4558C8.85269 34.9646 9.42955 35.5804 9.97714 36.2191C10.4583 36.7803 10.6824 36.8968 10.9942 36.9755H20.1417C21.6374 37.1373 22.5009 36.4586 22.7458 36.0991C22.8821 35.7186 23.1864 35.0969 23.4392 34.75C23.5066 34.6574 23.594 34.5827 23.6871 34.5167L25.306 33.3704C25.9859 32.5783 26.8976 31.3311 27.3891 30.3897C27.4186 30.3331 27.448 30.2763 27.4774 30.2195C27.6785 29.831 27.8807 29.4402 28.1448 29.0935C28.7122 28.3487 29.0072 27.4288 28.9799 26.4896L28.91 24.0923C28.8967 23.6343 28.6388 23.2295 28.3113 22.9122C27.7115 22.3311 27.4897 21.6566 27.4197 21.2678C27.2963 20.7728 27.2132 20.371 27.1447 20.0403C27.0036 19.3585 26.925 18.9784 26.6852 18.7061L23.4135 16.5488C23.1464 15.0387 21.7887 14.4814 21.1433 14.3915ZM24.8367 24.0003C22.9053 25.4776 20.7858 25.9881 19.2876 26.3489C19.0768 26.3996 18.8778 26.4475 18.6938 26.4947C19.4283 28.9216 22.0546 28.4946 23.0339 28.0452C25.4377 26.7508 25.1038 24.7644 24.8367 24.0003ZM13.2121 26.3488C11.7139 25.9881 9.59438 25.4776 7.66297 24.0003C7.39588 24.7644 7.06203 26.7508 9.46577 28.0452C10.4451 28.4946 13.0714 28.9216 13.8058 26.4947C13.6218 26.4475 13.4231 26.3997 13.2121 26.3488Z" fill="#F97339"/>
<path d="M56.0453 25.6889C56.0453 27.816 55.6047 29.318 54.7235 30.1949C54.1687 30.747 53.2712 31.023 52.031 31.023H44.957C43.4721 31.023 42.4604 30.7551 41.9219 30.2192C41.5465 29.8458 41.2773 29.2937 41.1141 28.563C40.9509 27.816 40.8693 26.72 40.8693 25.2748H45.6914C45.724 26.2816 45.8137 26.858 45.9606 27.0041C46.0912 27.134 46.4746 27.199 47.111 27.199H49.5832C50.3013 27.199 50.7174 27.1422 50.8316 27.0285C50.9785 26.8824 51.0519 26.517 51.0519 25.9324C51.0519 25.4291 50.9785 25.1043 50.8316 24.9582C50.7174 24.8445 50.2931 24.7471 49.5588 24.6659L44.492 24.0813C43.4476 23.9677 42.6725 23.6591 42.1666 23.1558C41.4323 22.4251 41.0651 21.0773 41.0651 19.1125C41.0651 17.1153 41.5057 15.6782 42.3869 14.8014C42.9417 14.2493 43.8229 13.9732 45.0305 13.9732H51.6149C53.1161 13.9732 54.1279 14.233 54.6501 14.7526C55.0417 15.1424 55.3273 15.6863 55.5068 16.3846C55.6863 17.0665 55.7842 18.1058 55.8005 19.5022H50.9785C50.9458 18.6416 50.8561 18.1382 50.7092 17.9921C50.5787 17.8622 50.236 17.7973 49.6812 17.7973H47.2334C46.6623 17.7973 46.3359 17.8378 46.2543 17.919C46.1238 18.0489 46.0585 18.3818 46.0585 18.9177C46.0585 19.421 46.132 19.7458 46.2788 19.8919C46.3767 19.9894 46.801 20.0787 47.5516 20.1599L52.6674 20.7444C53.7118 20.8743 54.4787 21.1829 54.9683 21.67C55.6863 22.3845 56.0453 23.7241 56.0453 25.6889Z" fill="#F97339"/>
<path d="M62.5564 21.8405H65.151C65.9343 21.8405 66.3912 21.7755 66.5217 21.6456C66.7828 21.4021 66.9134 20.7931 66.9134 19.8189C66.9134 18.8608 66.7828 18.2681 66.5217 18.0408C66.3749 17.9109 65.918 17.846 65.151 17.846H62.5564V21.8405ZM71.9312 16.5063C72.2086 17.237 72.3473 18.3493 72.3473 19.8432C72.3473 21.3371 72.2086 22.4575 71.9312 23.2045C71.6538 23.9352 71.2703 24.5197 70.7808 24.9582C70.2097 25.4615 69.149 25.7132 67.5987 25.7132H62.5564V31.023H57.2938V13.9732H67.5987C69.149 13.9732 70.2097 14.2249 70.7808 14.7283C71.2703 15.1667 71.6538 15.7594 71.9312 16.5063Z" fill="#F97339"/>
<path d="M83.3853 31.023L82.3083 27.3451H77.0456L75.9931 31.023H70.7305L75.9197 15.5077C76.1481 14.8257 76.3603 14.3873 76.5561 14.1924C76.7682 13.9976 77.1599 13.9002 77.731 13.9002H81.9411C82.5122 13.9002 82.9039 14.0057 83.116 14.2168C83.3281 14.4116 83.5403 14.842 83.7524 15.5077L88.9416 31.023H83.3853ZM79.5423 18.6741L78.0737 23.6916H81.2802L79.8116 18.6741H79.5423Z" fill="#F97339"/>
<path d="M113.129 13.9732L109.604 29.4885C109.474 30.0893 109.254 30.5115 108.944 30.7551C108.65 30.9824 108.201 31.0961 107.597 31.0961H104.073C103.469 31.0961 103.012 30.9824 102.702 30.7551C102.408 30.5115 102.204 30.0893 102.09 29.4885L100.523 21.8405H100.303L98.761 29.4885C98.6468 30.0893 98.4347 30.5115 98.1246 30.7551C97.8309 30.9824 97.3821 31.0961 96.7784 31.0961H93.2292C92.6254 31.0961 92.1685 30.9824 91.8584 30.7551C91.5647 30.5115 91.3526 30.0893 91.222 29.4885L87.6973 13.9732H93.425L95.1873 25.4209H95.4321L97.5127 15.5321C97.6269 14.9475 97.8309 14.5334 98.1246 14.2899C98.4347 14.0463 98.8834 13.9245 99.4709 13.9245H101.747C102.351 13.9245 102.8 14.0463 103.094 14.2899C103.387 14.5172 103.591 14.9313 103.705 15.5321L105.786 25.4209H106.006L107.769 13.9732H113.129Z" fill="#F97339"/>
<path d="M130 13.9732V31.023H126.353C125.798 31.023 125.357 30.9337 125.031 30.7551C124.705 30.5765 124.395 30.2517 124.101 29.7808L118.814 21.2803H118.691V31.023H113.723V13.9732H118.202C118.757 13.9732 119.197 14.0625 119.524 14.2412C119.866 14.4198 120.176 14.7445 120.454 15.2154L124.909 22.693H125.031V13.9732H130Z" fill="#F97339"/>
</svg>
