<svg width="20" height="20" viewBox="0 0 20 20" fill="none" xmlns="http://www.w3.org/2000/svg">
<path d="M3.675 13.9583C3.475 16.3666 5.29166 18.3333 7.70833 18.3333H11.7C14.4167 18.3333 16.2833 16.1416 15.8333 13.4583C15.3583 10.6416 12.6417 8.33325 9.78333 8.33325C6.68333 8.33325 3.93333 10.8666 3.675 13.9583ZM8.725 6.24992C9.27753 6.24992 9.80743 6.03043 10.1981 5.63972C10.5888 5.24902 10.8083 4.71912 10.8083 4.16659C10.8083 3.61405 10.5888 3.08415 10.1981 2.69345C9.80743 2.30275 9.27753 2.08325 8.725 2.08325C8.17246 2.08325 7.64256 2.30275 7.25186 2.69345C6.86116 3.08415 6.64166 3.61405 6.64166 4.16659C6.64166 4.71912 6.86116 5.24902 7.25186 5.63972C7.64256 6.03043 8.17246 6.24992 8.725 6.24992ZM14.4167 7.24992C14.8587 7.24992 15.2826 7.07432 15.5952 6.76176C15.9077 6.4492 16.0833 6.02528 16.0833 5.58325C16.0833 5.14122 15.9077 4.7173 15.5952 4.40474C15.2826 4.09218 14.8587 3.91659 14.4167 3.91659C13.9746 3.91659 13.5507 4.09218 13.2382 4.40474C12.9256 4.7173 12.75 5.14122 12.75 5.58325C12.75 6.02528 12.9256 6.4492 13.2382 6.76176C13.5507 7.07432 13.9746 7.24992 14.4167 7.24992ZM17.5 10.5833C17.6641 10.5833 17.8267 10.5509 17.9784 10.4881C18.13 10.4253 18.2678 10.3332 18.3839 10.2171C18.5 10.1011 18.592 9.96326 18.6548 9.81161C18.7177 9.65995 18.75 9.4974 18.75 9.33325C18.75 9.1691 18.7177 9.00655 18.6548 8.8549C18.592 8.70324 18.5 8.56544 18.3839 8.44937C18.2678 8.33329 18.13 8.24122 17.9784 8.1784C17.8267 8.11558 17.6641 8.08325 17.5 8.08325C17.1685 8.08325 16.8505 8.21495 16.6161 8.44937C16.3817 8.68379 16.25 9.00173 16.25 9.33325C16.25 9.66477 16.3817 9.98271 16.6161 10.2171C16.8505 10.4516 17.1685 10.5833 17.5 10.5833ZM3.30833 8.91658C3.75036 8.91658 4.17428 8.74099 4.48684 8.42843C4.7994 8.11587 4.975 7.69195 4.975 7.24992C4.975 6.80789 4.7994 6.38397 4.48684 6.07141C4.17428 5.75885 3.75036 5.58325 3.30833 5.58325C2.8663 5.58325 2.44238 5.75885 2.12982 6.07141C1.81726 6.38397 1.64166 6.80789 1.64166 7.24992C1.64166 7.69195 1.81726 8.11587 2.12982 8.42843C2.44238 8.74099 2.8663 8.91658 3.30833 8.91658Z" stroke="#666666" stroke-width="1.5" stroke-linecap="round" stroke-linejoin="round"/>
</svg>
