<svg width="20" height="20" viewBox="0 0 20 20" fill="none" xmlns="http://www.w3.org/2000/svg">
<path d="M6.66666 5.00008V4.33341C6.66666 2.85841 6.66666 1.66675 9.33333 1.66675H10.6667C13.3333 1.66675 13.3333 2.85841 13.3333 4.33341V5.00008M6.66666 18.3334H13.3333C16.6833 18.3334 17.2833 16.9917 17.4583 15.3584L18.0833 8.69175C18.3083 6.65841 17.725 5.00008 14.1667 5.00008H5.83333C2.275 5.00008 1.69166 6.65841 1.91666 8.69175L2.54166 15.3584C2.71666 16.9917 3.31666 18.3334 6.66666 18.3334Z" stroke="#3E3E3E" stroke-width="1.5" stroke-miterlimit="10" stroke-linecap="round" stroke-linejoin="round"/>
<path d="M11.6667 11.6834V10.8334C11.6667 10.0001 11.6667 10.0001 10.8333 10.0001H9.16668C8.33335 10.0001 8.33335 10.0001 8.33335 10.8334V11.6917M11.6667 11.6834C11.6667 12.5917 11.6583 13.3334 10 13.3334C8.35002 13.3334 8.33335 12.6001 8.33335 11.6917M11.6667 11.6834C13.9702 11.3966 16.1635 10.5308 18.0417 9.16675M8.33335 11.6917C6.17502 11.4501 4.05835 10.6751 2.18335 9.39175" stroke="#3E3E3E" stroke-width="1.5" stroke-miterlimit="10" stroke-linecap="round" stroke-linejoin="round"/>
</svg>
